<?xml version="1.0" encoding="UTF-8" standalone="no"?>
<!-- Generator: Adobe Illustrator 15.1.0, SVG Export Plug-In . SVG Version: 6.00 Build 0)  -->

<svg
   xmlns:dc="http://purl.org/dc/elements/1.1/"
   xmlns:cc="http://creativecommons.org/ns#"
   xmlns:rdf="http://www.w3.org/1999/02/22-rdf-syntax-ns#"
   xmlns:svg="http://www.w3.org/2000/svg"
   xmlns="http://www.w3.org/2000/svg"
   xmlns:sodipodi="http://sodipodi.sourceforge.net/DTD/sodipodi-0.dtd"
   xmlns:inkscape="http://www.inkscape.org/namespaces/inkscape"
   version="1.1"
   id="Layer_1"
   x="0px"
   y="0px"
   width="110.48801"
   height="68.011581"
   viewBox="0 0 110.488 68.011579"
   enable-background="new 0 0 237.6 156.24"
   xml:space="preserve"
   inkscape:version="0.48.3.1 r9886"
   sodipodi:docname="comments.svg"><metadata
   id="metadata17"><rdf:RDF><cc:Work
       rdf:about=""><dc:format>image/svg+xml</dc:format><dc:type
         rdf:resource="http://purl.org/dc/dcmitype/StillImage" /></cc:Work></rdf:RDF></metadata><defs
   id="defs15" /><sodipodi:namedview
   pagecolor="#ffffff"
   bordercolor="#666666"
   borderopacity="1"
   objecttolerance="10"
   gridtolerance="10"
   guidetolerance="10"
   inkscape:pageopacity="0"
   inkscape:pageshadow="2"
   inkscape:window-width="818"
   inkscape:window-height="668"
   id="namedview13"
   showgrid="false"
   fit-margin-top="0"
   fit-margin-left="0"
   fit-margin-right="0"
   fit-margin-bottom="0"
   inkscape:zoom="1.266835"
   inkscape:cx="55.155001"
   inkscape:cy="32.547582"
   inkscape:window-x="0"
   inkscape:window-y="24"
   inkscape:window-maximized="0"
   inkscape:current-layer="Layer_1" />
<path
   d="m 107.755,-7.3982002e-7 c -34.994,0 -69.989,0 -104.984,0 C 1.281,-7.3982002e-7 0,1.2259993 0,2.7319993 0,17.406999 0,32.081999 0,46.755999 c 0,1.491 1.226,2.771 2.732,2.771 2.49,0 4.98,0 7.47,0 -1.15,5.479 -2.301,10.96 -3.451,16.439 -0.106,0.507 0.012,0.939 0.254,1.271 0.358,0.589 1.036,0.964 1.778,0.675 0.256,-0.058 0.488,-0.187 0.674,-0.389 9.443,-5.999 18.887,-11.997 28.33,-17.996 23.31,0 46.619,0 69.929,0 0.759,0 1.347,-0.26 1.784,-0.654 0.583,-0.438 0.988,-1.123 0.988,-2.078 0,-14.675 0,-29.35 0,-44.0239997 0,-1.49 -1.227,-2.77100003982 -2.733,-2.77100003982 z"
   id="path3"
   style="fill:#004a24;fill-opacity:1"
   inkscape:connector-curvature="0" />
<g
   id="g5"
   style="fill:#009246;fill-opacity:1"
   transform="translate(-63.645,-42.656001)">
	<polygon
   points="81.16,82.623 76.867,99.268 103.073,82.623 163.731,82.623 163.731,48.536 71.308,48.536 71.308,82.623 "
   id="polygon7"
   style="fill:#009246;fill-opacity:1" />
	<g
   id="g9"
   style="fill:#009246;fill-opacity:1">
		<path
   d="m 163.738,47.643 c -30.809,0 -61.616,0 -92.424,0 -0.484,0 -0.9,0.398 -0.9,0.887 0,11.363 0,22.725 0,34.087 0,0.484 0.398,0.9 0.887,0.9 3.284,0 6.568,0 9.853,0 -0.285,-0.376 -0.57,-0.753 -0.855,-1.13 -1.431,5.549 -2.861,11.097 -4.293,16.645 -0.189,0.735 0.636,1.438 1.314,1.007 7.101,-4.51 14.2,-9.019 21.301,-13.528 1.359,-0.864 2.719,-1.728 4.079,-2.591 1.104,-0.701 0.053,-0.402 0.896,-0.402 2.798,0 5.596,0 8.393,0 17.246,0 34.491,0 51.736,0 0.484,0 0.9,-0.398 0.9,-0.887 0,-11.362 0,-22.726 0,-34.087 0,-1.154 -1.787,-1.164 -1.787,-0.014 0,11.068 0,22.135 0,33.202 0,1.213 1.666,-0.002 -0.424,-0.002 -2.06,0 -4.119,0 -6.178,0 -7.109,0 -14.219,0 -21.328,0 -7.388,0 -14.775,0 -22.162,0 -2.959,0 -7.011,-0.745 -9.904,0.03 -1.314,0.353 -2.73,1.687 -3.855,2.401 -3.017,1.916 -6.033,3.832 -9.051,5.748 -4.507,2.862 -9.014,5.726 -13.521,8.588 0.438,0.335 0.876,0.671 1.314,1.007 1.431,-5.549 2.861,-11.097 4.293,-16.645 0.143,-0.556 -0.271,-1.13 -0.855,-1.13 -2.943,0 -5.886,0 -8.828,0 -1.612,0 -0.138,1.377 -0.138,0.326 0,-1.119 0,-2.238 0,-3.356 0,-7.487 0,-14.975 0,-22.461 0,-2.374 0,-4.748 0,-7.121 0,-0.318 -1.657,0.312 0.466,0.312 4.421,0 8.842,0 13.263,0 25.856,0 51.714,0 77.57,0 0.075,0 0.15,0 0.225,0 1.154,10e-4 1.164,-1.786 0.013,-1.786 z"
   id="path11"
   style="fill:#009246;fill-opacity:1"
   inkscape:connector-curvature="0" />
	</g>
</g>
</svg>