<?xml version="1.0" encoding="UTF-8" standalone="no"?>
<!-- Generator: Adobe Illustrator 15.1.0, SVG Export Plug-In . SVG Version: 6.00 Build 0)  -->

<svg
   xmlns:dc="http://purl.org/dc/elements/1.1/"
   xmlns:cc="http://creativecommons.org/ns#"
   xmlns:rdf="http://www.w3.org/1999/02/22-rdf-syntax-ns#"
   xmlns:svg="http://www.w3.org/2000/svg"
   xmlns="http://www.w3.org/2000/svg"
   xmlns:sodipodi="http://sodipodi.sourceforge.net/DTD/sodipodi-0.dtd"
   xmlns:inkscape="http://www.inkscape.org/namespaces/inkscape"
   version="1.1"
   id="Layer_1"
   x="0px"
   y="0px"
   width="110.48801"
   height="68.01519"
   viewBox="0 0 110.488 68.015188"
   enable-background="new 0 0 237.6 156.24"
   xml:space="preserve"
   inkscape:version="0.48.3.1 r9886"
   sodipodi:docname="comments_active.svg"><metadata
   id="metadata39"><rdf:RDF><cc:Work
       rdf:about=""><dc:format>image/svg+xml</dc:format><dc:type
         rdf:resource="http://purl.org/dc/dcmitype/StillImage" /></cc:Work></rdf:RDF></metadata><defs
   id="defs37" /><sodipodi:namedview
   pagecolor="#ffffff"
   bordercolor="#666666"
   borderopacity="1"
   objecttolerance="10"
   gridtolerance="10"
   guidetolerance="10"
   inkscape:pageopacity="0"
   inkscape:pageshadow="2"
   inkscape:window-width="1366"
   inkscape:window-height="696"
   id="namedview35"
   showgrid="false"
   fit-margin-top="0"
   fit-margin-left="0"
   fit-margin-right="0"
   fit-margin-bottom="0"
   inkscape:zoom="1.266835"
   inkscape:cx="-83.504221"
   inkscape:cy="33.124188"
   inkscape:window-x="0"
   inkscape:window-y="24"
   inkscape:window-maximized="1"
   inkscape:current-layer="g19" />
<g
   id="g3"
   transform="translate(-63.77,-43.229001)">
	<rect
   x="66.521004"
   y="45.980999"
   width="104.984"
   height="44.023998"
   id="rect5"
   style="fill:#9fc294" />
	<g
   id="g7">
		<path
   d="m 171.525,87.254 c -34.994,0 -69.989,0 -104.984,0 0.911,0.924 1.821,1.848 2.732,2.771 0,-14.674 0,-29.349 0,-44.024 -0.924,0.911 -1.848,1.821 -2.772,2.732 34.995,0 69.99,0 104.985,0 -0.911,-0.924 -1.821,-1.848 -2.732,-2.772 0,14.675 0,29.35 0,44.025 0,3.553 5.504,3.584 5.504,0.039 0,-14.674 0,-29.349 0,-44.024 0,-1.491 -1.226,-2.772 -2.732,-2.772 -34.994,0 -69.989,0 -104.984,0 -1.491,0 -2.772,1.226 -2.772,2.732 0,14.675 0,29.35 0,44.025 0,1.491 1.226,2.771 2.732,2.771 34.995,0 69.99,0 104.985,0 3.552,10e-4 3.583,-5.503 0.038,-5.503 z"
   id="path9"
   inkscape:connector-curvature="0"
   style="fill:#9fc294" />
	</g>
</g>
<g
   id="g11"
   transform="translate(-63.77,-43.229001)">
	<polygon
   points="72.054,109.617 76.802,87.003 107.653,87.003 "
   id="polygon13"
   style="fill:#9fc294" />
	<g
   id="g15">
		<path
   d="m 73.587,110.037 c 1.583,-7.538 3.166,-15.076 4.748,-22.614 -0.515,0.39 -1.03,0.779 -1.544,1.17 10.284,0 20.567,0 30.852,0 -0.265,-0.987 -0.529,-1.974 -0.793,-2.961 -11.867,7.538 -23.733,15.076 -35.6,22.614 -1.724,1.096 -0.125,3.845 1.609,2.742 11.867,-7.538 23.733,-15.076 35.6,-22.614 1.301,-0.827 0.824,-2.961 -0.793,-2.961 -10.284,0 -20.567,0 -30.852,0 -0.68,0 -1.398,0.476 -1.544,1.17 -1.583,7.538 -3.166,15.076 -4.748,22.614 -0.421,2.001 2.644,2.846 3.065,0.84 z"
   id="path17"
   inkscape:connector-curvature="0"
   style="fill:#9fc294" />
	</g>
</g>
<g
   id="g19"
   transform="translate(-63.77,-43.229001)">
	<rect
   x="71.432999"
   y="49.109001"
   width="92.424004"
   height="34.087002"
   id="rect21"
   style="fill:#006838" />
	<g
   id="g23">
		<path
   d="m 163.866,81.824 c -30.808,0 -61.616,0 -92.424,0 0.454,0.461 0.908,0.921 1.362,1.382 0,-11.362 0,-22.725 0,-34.087 -0.46,0.454 -0.921,0.908 -1.382,1.362 30.808,0 61.616,0 92.424,0 -0.454,-0.46 -0.908,-0.921 -1.362,-1.382 0,11.362 0,22.725 0,34.087 0,1.771 2.744,1.787 2.744,0.02 0,-11.362 0,-22.725 0,-34.087 0,-0.744 -0.611,-1.382 -1.362,-1.382 -30.808,0 -61.616,0 -92.424,0 -0.744,0 -1.382,0.611 -1.382,1.362 0,11.362 0,22.725 0,34.087 0,0.743 0.611,1.382 1.362,1.382 30.808,0 61.616,0 92.424,0 1.772,0 1.788,-2.744 0.02,-2.744 z"
   id="path25"
   inkscape:connector-curvature="0"
   style="fill:#006838" />
	</g>
</g>
<g
   id="g27"
   transform="translate(-63.77,-43.229001)">
	<polygon
   points="76.992,99.841 81.852,81.001 106.654,81.001 "
   id="polygon29"
   style="fill:#006838" />
	<g
   id="g31">
		<path
   d="m 77.854,100.077 c 0.891,-3.454 1.782,-6.907 2.672,-10.361 0.561,-2.173 1.121,-4.347 1.682,-6.52 0.148,-0.573 0.296,-1.146 0.443,-1.72 -0.016,0.062 -1.377,0.418 -0.04,0.418 8.012,0 16.024,0 24.036,0 -0.149,-0.555 -0.297,-1.109 -0.446,-1.664 -9.887,6.28 -19.774,12.56 -29.661,18.84 -0.969,0.615 -0.071,2.161 0.904,1.541 9.888,-6.279 19.775,-12.56 29.662,-18.84 0.732,-0.465 0.463,-1.664 -0.446,-1.664 -8.268,0 -16.535,0 -24.803,0 -0.396,0 -0.768,0.269 -0.868,0.657 -1.62,6.28 -3.24,12.561 -4.859,18.84 -0.288,1.118 1.436,1.588 1.724,0.473 z"
   id="path33"
   inkscape:connector-curvature="0"
   style="fill:#006838" />
	</g>
</g>
</svg>