<?xml version="1.0" encoding="utf-8"?>
<!-- Generator: Adobe Illustrator 15.1.0, SVG Export Plug-In . SVG Version: 6.00 Build 0)  -->
<!DOCTYPE svg PUBLIC "-//W3C//DTD SVG 1.1//EN" "http://www.w3.org/Graphics/SVG/1.1/DTD/svg11.dtd">
<svg version="1.1" id="Layer_1" xmlns="http://www.w3.org/2000/svg" xmlns:xlink="http://www.w3.org/1999/xlink" x="0px" y="0px"
	 width="45.381px" height="31.926px" viewBox="0 0 45.381 31.926" enable-background="new 0 0 45.381 31.926" xml:space="preserve">
<path fill="#E6E7E8" d="M34.966,9.579c0,0.551-0.18,0.998-0.402,0.998H10.818c-0.222,0-0.402-0.447-0.402-0.998l0,0
	c0-0.551,0.18-0.998,0.402-0.998h23.746C34.786,8.581,34.966,9.028,34.966,9.579L34.966,9.579z"/>
<path fill="#E6E7E8" d="M34.966,15.963c0,0.551-0.18,0.998-0.402,0.998H10.818c-0.222,0-0.402-0.447-0.402-0.998l0,0
	c0-0.551,0.18-0.998,0.402-0.998h23.746C34.786,14.965,34.966,15.412,34.966,15.963L34.966,15.963z"/>
<path fill="#E6E7E8" d="M34.966,22.348c0,0.551-0.18,0.998-0.402,0.998H10.818c-0.222,0-0.402-0.447-0.402-0.998l0,0
	c0-0.551,0.18-0.998,0.402-0.998h23.746C34.786,21.35,34.966,21.796,34.966,22.348L34.966,22.348z"/>
</svg>
