<?xml version="1.0" encoding="utf-8"?>
<!-- Generator: Adobe Illustrator 15.1.0, SVG Export Plug-In . SVG Version: 6.00 Build 0)  -->
<!DOCTYPE svg PUBLIC "-//W3C//DTD SVG 1.1//EN" "http://www.w3.org/Graphics/SVG/1.1/DTD/svg11.dtd">
<svg version="1.1" id="Layer_1" xmlns="http://www.w3.org/2000/svg" xmlns:xlink="http://www.w3.org/1999/xlink" x="0px" y="0px"
	 width="237.6px" height="156.24px" viewBox="0 0 237.6 156.24" enable-background="new 0 0 237.6 156.24" xml:space="preserve">
<g>
	<rect x="68.929" y="68.24" fill="#9FC294" width="99.857" height="44.872"/>
	<g>
		<path fill="#9FC294" d="M168.796,111.691c-33.285,0-66.571,0-99.857,0c0.47,0.478,0.94,0.954,1.41,1.431
			c0-14.957,0-29.914,0-44.872c-0.477,0.47-0.954,0.94-1.431,1.41c33.286,0,66.572,0,99.858,0c-0.471-0.477-0.94-0.954-1.411-1.431
			c0,14.958,0,29.915,0,44.873c0,1.834,2.842,1.85,2.842,0.02c0-14.957,0-29.914,0-44.872c0-0.77-0.633-1.431-1.411-1.431
			c-33.285,0-66.571,0-99.857,0c-0.77,0-1.431,0.633-1.431,1.41c0,14.958,0,29.915,0,44.873c0,0.77,0.633,1.431,1.41,1.431
			c33.286,0,66.572,0,99.858,0C170.61,114.533,170.626,111.691,168.796,111.691z"/>
	</g>
</g>
<g>
	<rect x="72.304" y="67.72" fill="#006838" width="90.283" height="38.864"/>
	<g>
		<path fill="#006838" d="M162.596,105.327c-30.094,0-60.188,0-90.283,0c0.416,0.422,0.832,0.844,1.248,1.266
			c0-12.954,0-25.909,0-38.864c-0.422,0.416-0.844,0.832-1.266,1.248c30.095,0,60.189,0,90.284,0
			c-0.416-0.422-0.832-0.844-1.248-1.266c0,12.955,0,25.91,0,38.865c0,1.623,2.514,1.637,2.514,0.018c0-12.954,0-25.909,0-38.864
			c0-0.681-0.56-1.266-1.248-1.266c-30.094,0-60.188,0-90.283,0c-0.681,0-1.266,0.56-1.266,1.248c0,12.955,0,25.91,0,38.865
			c0,0.681,0.56,1.266,1.248,1.266c30.095,0,60.189,0,90.284,0C164.201,107.841,164.215,105.327,162.596,105.327z"/>
	</g>
</g>
<g>
	<polygon fill="#006838" points="55.849,73.068 181.659,73.068 119.968,39.27 	"/>
	<g>
		<path fill="#9FC294" d="M55.838,74.489c41.937,0,83.874,0,125.811,0c1.399,0,1.987-1.958,0.72-2.651
			c-20.373-11.162-40.747-22.324-61.12-33.486c-1.866-1.022-3.609,0.541-5.309,1.437c-5.419,2.856-10.839,5.713-16.259,8.57
			c-13.129,6.92-26.257,13.841-39.386,20.762c-1.722,0.907-3.444,1.815-5.166,2.723c-1.621,0.854-0.18,3.304,1.438,2.451
			c20.96-11.048,41.92-22.097,62.88-33.146c1.912-1.008,0.378-0.337,0.066-0.508c1.332,0.729,2.663,1.459,3.995,2.188
			c5.71,3.128,11.42,6.256,17.129,9.385c12.456,6.824,24.911,13.648,37.367,20.472c0.981,0.538,1.963,1.076,2.944,1.613
			c0.24-0.884,0.48-1.768,0.72-2.651c-41.937,0-83.873,0-125.81,0C54.024,71.647,54.008,74.489,55.838,74.489z"/>
	</g>
</g>
<g>
	<rect x="119.743" y="81.568" fill="#9FC294" width="20.98" height="28.068"/>
	<g>
		<path fill="#9FC294" d="M140.733,108.252c-6.993,0-13.986,0-20.98,0c0.458,0.465,0.917,0.93,1.375,1.395
			c0-9.355,0-18.712,0-28.068c-0.465,0.458-0.93,0.917-1.395,1.375c6.993,0,13.986,0,20.98,0c-0.458-0.465-0.917-0.93-1.375-1.395
			c0,9.355,0,18.712,0,28.068c0,1.788,2.77,1.804,2.77,0.02c0-9.355,0-18.712,0-28.068c0-0.75-0.617-1.395-1.375-1.395
			c-6.993,0-13.986,0-20.98,0c-0.75,0-1.395,0.617-1.395,1.375c0,9.355,0,18.712,0,28.068c0,0.75,0.617,1.395,1.375,1.395
			c6.993,0,13.986,0,20.98,0C142.502,111.021,142.518,108.252,140.733,108.252z"/>
	</g>
</g>
<g>
	<rect x="122.823" y="83.203" fill="#006838" width="10.187" height="24.107"/>
	<g>
		<path fill="#006838" d="M133.017,106.416c-3.083,0-6.165,0-9.247,0c-1.484,0-0.052,1.491-0.052,0.156c0-1.382,0-2.764,0-4.146
			c0-6.389,0-12.778,0-19.167c0,1.02-1.5,0.839,0.039,0.839c0.761,0,1.522,0,2.283,0c2.008,0,4.016,0,6.023,0
			c1.484,0,0.052-1.491,0.052-0.156c0,1.382,0,2.764,0,4.146c0,6.405,0,12.811,0,19.216c0,1.155,1.789,1.165,1.789,0.014
			c0-8.036,0-16.072,0-24.107c0-0.485-0.398-0.901-0.888-0.901c-3.396,0-6.791,0-10.187,0c-0.485,0-0.901,0.398-0.901,0.888
			c0,8.036,0,16.072,0,24.107c0,0.485,0.398,0.901,0.888,0.901c3.396,0,6.791,0,10.187,0
			C134.158,108.205,134.168,106.416,133.017,106.416z"/>
	</g>
</g>
<g>
	<rect x="83.964" y="82.38" fill="#9FC294" width="21.18" height="19.485"/>
	<g>
		<path fill="#9FC294" d="M105.152,100.706c-7.06,0-14.12,0-21.18,0c0.384,0.389,0.767,0.778,1.151,1.168c0-6.495,0-12.99,0-19.485
			c-0.389,0.383-0.778,0.767-1.167,1.15c7.06,0,14.12,0,21.18,0c-0.384-0.389-0.767-0.778-1.151-1.168c0,6.495,0,12.99,0,19.485
			c0,1.497,2.318,1.511,2.318,0.018c0-6.495,0-12.99,0-19.485c0-0.629-0.516-1.168-1.151-1.168c-7.06,0-14.12,0-21.18,0
			c-0.628,0-1.167,0.517-1.167,1.15c0,6.495,0,12.99,0,19.485c0,0.629,0.516,1.168,1.151,1.168c7.06,0,14.12,0,21.18,0
			C106.632,103.024,106.645,100.706,105.152,100.706z"/>
	</g>
</g>
<g>
	<rect x="84.997" y="84.191" fill="#006838" width="16.412" height="14.248"/>
	<g>
		<path fill="#006838" d="M101.416,97.566c-5.471,0-10.941,0-16.412,0c0.289,0.293,0.578,0.586,0.866,0.879
			c0-4.749,0-9.498,0-14.248c-0.293,0.289-0.586,0.578-0.879,0.867c5.471,0,10.941,0,16.412,0c-0.289-0.293-0.578-0.586-0.866-0.879
			c0,4.749,0,9.498,0,14.248c0,1.126,1.745,1.136,1.745,0.012c0-4.749,0-9.498,0-14.248c0-0.473-0.389-0.879-0.866-0.879
			c-5.471,0-10.941,0-16.412,0c-0.473,0-0.879,0.389-0.879,0.867c0,4.749,0,9.498,0,14.248c0,0.473,0.389,0.879,0.866,0.879
			c5.471,0,10.941,0,16.412,0C102.53,99.312,102.54,97.566,101.416,97.566z"/>
	</g>
</g>
</svg>
