<?xml version="1.0" encoding="utf-8"?>
<!-- Generator: Adobe Illustrator 15.1.0, SVG Export Plug-In . SVG Version: 6.00 Build 0)  -->
<!DOCTYPE svg PUBLIC "-//W3C//DTD SVG 1.1//EN" "http://www.w3.org/Graphics/SVG/1.1/DTD/svg11.dtd">
<svg version="1.1" id="Layer_1" xmlns="http://www.w3.org/2000/svg" xmlns:xlink="http://www.w3.org/1999/xlink" x="0px" y="0px"
	 width="237.6px" height="156.24px" viewBox="0 0 237.6 156.24" enable-background="new 0 0 237.6 156.24" xml:space="preserve">
<g>
	<rect x="71.627" y="68.748" fill="#004B25" width="95.118" height="42.742"/>
	<g>
		<path fill="#004B25" d="M166.755,110.137c-31.706,0-63.412,0-95.118,0c0.448,0.455,0.896,0.909,1.343,1.363
			c0-14.247,0-28.495,0-42.742c-0.454,0.447-0.909,0.896-1.363,1.344c31.706,0,63.412,0,95.118,0
			c-0.448-0.455-0.896-0.909-1.343-1.363c0,14.247,0,28.495,0,42.742c0,1.747,2.705,1.763,2.705,0.02c0-14.247,0-28.495,0-42.742
			c0-0.733-0.602-1.363-1.343-1.363c-31.706,0-63.412,0-95.118,0c-0.733,0-1.363,0.604-1.363,1.344c0,14.247,0,28.495,0,42.742
			c0,0.733,0.603,1.363,1.343,1.363c31.706,0,63.412,0,95.118,0C168.482,112.844,168.498,110.137,166.755,110.137z"/>
	</g>
</g>
<g>
	<rect x="74.842" y="75.623" fill="#009849" width="85.998" height="29.648"/>
	<g>
		<path fill="#009849" d="M160.848,104.2c-28.666,0-57.332,0-85.998,0c0.354,0.359,0.709,0.72,1.064,1.079
			c0-9.883,0-19.766,0-29.648c-0.36,0.354-0.72,0.709-1.08,1.063c28.666,0,57.332,0,85.998,0c-0.354-0.359-0.709-0.72-1.064-1.079
			c0,9.883,0,19.766,0,29.648c0,1.384,2.145,1.396,2.145,0.016c0-9.883,0-19.766,0-29.648c0-0.58-0.479-1.08-1.064-1.08
			c-28.666,0-57.332,0-85.998,0c-0.581,0-1.08,0.479-1.08,1.064c0,9.883,0,19.766,0,29.648c0,0.581,0.478,1.079,1.064,1.079
			c28.666,0,57.332,0,85.998,0C162.216,106.343,162.229,104.2,160.848,104.2z"/>
	</g>
</g>
<g>
	<polygon fill="#004B25" points="59.168,73.347 179.006,73.347 120.244,41.152 	"/>
	<g>
		<path fill="#004B25" d="M59.159,74.7c39.946,0,79.892,0,119.837,0c1.334,0,1.894-1.864,0.688-2.525
			c-19.582-10.729-39.164-21.456-58.746-32.185c-1.665-0.912-5.979,2.42-7.286,3.108c-6.167,3.251-12.334,6.502-18.501,9.753
			c-11.791,6.215-23.583,12.431-35.374,18.646c-0.431,0.227-0.862,0.454-1.293,0.682c-1.544,0.813-0.171,3.146,1.37,2.334
			c20.271-10.685,40.541-21.369,60.812-32.055c-0.365,0.191-1.679-0.453,0.219,0.587c1.943,1.065,3.889,2.13,5.832,3.195
			c6.395,3.503,12.788,7.007,19.182,10.51c10.721,5.873,21.441,11.747,32.162,17.62c0.09,0.049,0.18,0.099,0.27,0.147
			c0.229-0.842,0.457-1.684,0.686-2.525c-39.945,0-79.892,0-119.837,0C57.43,71.993,57.415,74.7,59.159,74.7z"/>
	</g>
</g>
<g>
	<rect x="120.029" y="81.443" fill="#004B25" width="19.985" height="26.736"/>
	<g>
		<path fill="#004B25" d="M140.023,106.86c-6.661,0-13.322,0-19.984,0c0.437,0.443,0.873,0.886,1.31,1.329
			c0-8.912,0-17.824,0-26.736c-0.442,0.437-0.886,0.873-1.328,1.31c6.661,0,13.323,0,19.985,0c-0.438-0.443-0.873-0.886-1.311-1.329
			c0,8.912,0,17.824,0,26.736c0,1.703,2.639,1.719,2.639,0.02c0-8.912,0-17.824,0-26.736c0-0.715-0.588-1.329-1.311-1.329
			c-6.661,0-13.322,0-19.984,0c-0.714,0-1.328,0.588-1.328,1.31c0,8.912,0,17.824,0,26.736c0,0.715,0.587,1.329,1.31,1.329
			c6.661,0,13.323,0,19.985,0C141.708,109.499,141.723,106.86,140.023,106.86z"/>
	</g>
</g>
<g>
	<g>
		<path fill="#009849" d="M133.672,112.844c0-10.678,0-19.158,0-29.837c0-0.545-0.447-1.013-0.998-1.013c-3.234,0-6.469,0-9.703,0
			c-0.545,0-1.013,0.448-1.013,0.999c0,10.678,0,19.172,0,29.851H133.672z"/>
	</g>
</g>
<g>
	<rect x="85.948" y="82.217" fill="#004B25" width="20.174" height="18.56"/>
	<g>
		<path fill="#004B25" d="M106.13,99.672c-6.725,0-13.449,0-20.174,0c0.366,0.371,0.731,0.742,1.096,1.112c0-6.187,0-12.373,0-18.56
			c-0.371,0.365-0.741,0.731-1.112,1.097c6.725,0,13.449,0,20.174,0c-0.366-0.371-0.731-0.742-1.096-1.112c0,6.187,0,12.373,0,18.56
			c0,1.426,2.208,1.438,2.208,0.016c0-6.187,0-12.373,0-18.56c0-0.599-0.492-1.112-1.096-1.112c-6.725,0-13.449,0-20.174,0
			c-0.598,0-1.112,0.492-1.112,1.097c0,6.187,0,12.373,0,18.56c0,0.599,0.492,1.112,1.096,1.112c6.725,0,13.449,0,20.174,0
			C107.541,101.881,107.553,99.672,106.13,99.672z"/>
	</g>
</g>
<g>
	<rect x="86.934" y="83.942" fill="#009849" width="15.632" height="13.571"/>
	<g>
		<path fill="#009849" d="M102.572,96.683c-5.21,0-10.421,0-15.632,0c0.275,0.279,0.55,0.558,0.825,0.837c0-4.523,0-9.048,0-13.571
			c-0.279,0.275-0.558,0.55-0.837,0.825c5.21,0,10.421,0,15.632,0c-0.275-0.279-0.55-0.558-0.825-0.837c0,4.523,0,9.048,0,13.571
			c0,1.073,1.662,1.083,1.662,0.012c0-4.523,0-9.048,0-13.571c0-0.45-0.37-0.837-0.825-0.837c-5.21,0-10.421,0-15.632,0
			c-0.45,0-0.837,0.37-0.837,0.825c0,4.523,0,9.048,0,13.571c0,0.45,0.37,0.837,0.825,0.837c5.21,0,10.421,0,15.632,0
			C103.633,98.345,103.643,96.683,102.572,96.683z"/>
	</g>
</g>
</svg>
