<?xml version="1.0" encoding="utf-8"?>
<!-- Generator: Adobe Illustrator 16.0.0, SVG Export Plug-In . SVG Version: 6.00 Build 0)  -->
<!DOCTYPE svg PUBLIC "-//W3C//DTD SVG 1.1//EN" "http://www.w3.org/Graphics/SVG/1.1/DTD/svg11.dtd">
<svg version="1.1" id="Layer_1" xmlns="http://www.w3.org/2000/svg" xmlns:xlink="http://www.w3.org/1999/xlink" x="0px" y="0px"
	 width="1224px" height="792px" viewBox="0 0 1224 792" enable-background="new 0 0 1224 792" xml:space="preserve">
<path d="M995.831,354.671c-8.417-19.042-25.239-33.542-42.052-45.017c-9.977-6.808-20.684-12.984-31.791-18.38
	c25.91-19.153,53.29-30.905,52.362-30.598c-54.193,17.945-188.427-7.07-188.427-7.07c76.167,34.886,92.486,92.663,92.486,92.663
	c2.561-11.541,9.317-22.418,18.132-32.299c20.164,12.291,40.323,28.648,47.766,51.667c4.699,14.534,1.812,29.67-5.743,42.609
	c-7.898,13.522-20.194,24.191-32.903,33.023c-16.598,11.538-35.089,20.278-53.865,27.603
	c-49.179,19.185-102.099,28.754-154.461,33.719c-60.927,5.774-122.742,4.718-183.423-3.235
	c-44.575-5.843-89.192-15.685-130.977-32.559c-28.797-11.63-60.047-27.712-78.445-53.76c-1.408-1.993-4.702-0.133-3.309,1.937
	c19.384,28.802,52.638,46.428,83.744,59.567c46.761,19.75,97.241,30.466,147.383,37.087c60.783,8.028,122.589,9.185,183.691,4.462
	c53.517-4.137,107.15-13.036,158.272-29.699c36.152-11.782,73.749-27.807,101.514-54.599
	C997.045,411.277,1008.414,383.144,995.831,354.671z"/>
<text transform="matrix(1 0 0 1 477.3506 460.0303)" font-family="'CenturyGothic'" font-size="67.0996" letter-spacing="3">Vermont</text>
<path fill="#009648" stroke="#000000" stroke-width="4" stroke-miterlimit="10" d="M695.878,302.416"/>
<path fill="#009648" d="M990.722,347.167c-8.416-19.042-25.237-33.542-42.051-45.016c-9.977-6.808-20.684-12.984-31.792-18.38
	c25.911-19.153,53.291-30.905,52.363-30.598c-54.193,17.945-188.428-7.07-188.428-7.07c76.169,34.886,92.488,92.663,92.488,92.663
	c2.56-11.541,9.316-22.418,18.131-32.298c20.164,12.29,40.324,28.647,47.766,51.666c4.7,14.535,1.812,29.671-5.744,42.609
	c-7.896,13.523-20.193,24.191-32.902,33.023c-16.598,11.538-35.089,20.278-53.864,27.602
	c-49.181,19.186-102.099,28.756-154.461,33.719c-60.928,5.776-122.743,4.719-183.424-3.234
	c-44.575-5.842-89.192-15.684-130.977-32.559c-28.797-11.629-60.046-27.712-78.445-53.76c-1.408-1.993-4.702-0.133-3.308,1.937
	c19.384,28.802,52.638,46.428,83.743,59.567c46.761,19.75,97.242,30.466,147.383,37.087c60.783,8.027,122.589,9.185,183.69,4.461
	c53.519-4.136,107.15-13.035,158.273-29.698c36.151-11.782,73.75-27.807,101.515-54.599
	C991.937,403.773,1003.307,375.641,990.722,347.167z"/>
<g>
	<g>
		<path fill="#009648" d="M412.452,326.764l-6.735,6.381c-4.845-4.766-10.153-8.379-15.922-10.842
			c-5.771-2.461-11.394-3.692-16.868-3.692c-6.814,0-13.303,1.674-19.467,5.022c-6.165,3.348-10.94,7.887-14.327,13.618
			c-3.388,5.731-5.081,11.787-5.081,18.167c0,6.539,1.752,12.752,5.258,18.641c3.505,5.889,8.35,10.516,14.534,13.884
			c6.183,3.368,12.958,5.052,20.324,5.052c8.941,0,16.503-2.52,22.688-7.562c6.183-5.042,9.846-11.58,10.989-19.615h-27.709v-8.39
			h37.458c-0.08,13.432-4.067,24.096-11.964,31.993c-7.898,7.897-18.463,11.847-31.697,11.847c-16.07,0-28.793-5.475-38.167-16.425
			c-7.208-8.428-10.812-18.177-10.812-29.246c0-8.231,2.068-15.893,6.204-22.982c4.136-7.09,9.808-12.633,17.016-16.632
			c7.208-3.997,15.361-5.997,24.46-5.997c7.365,0,14.297,1.329,20.796,3.988S406.268,320.896,412.452,326.764z"/>
		<path fill="#009648" d="M430.854,334.799h8.449v9.394c2.52-3.702,5.179-6.469,7.976-8.301c2.796-1.832,5.71-2.747,8.744-2.747
			c2.284,0,4.727,0.729,7.326,2.186l-4.313,6.971c-1.734-0.748-3.19-1.123-4.372-1.123c-2.757,0-5.417,1.133-7.976,3.397
			c-2.561,2.266-4.511,5.781-5.849,10.546c-1.025,3.663-1.536,11.069-1.536,22.215v21.741h-8.449V334.799z"/>
		<path fill="#009648" d="M525.236,377.751l6.972,3.663c-2.286,4.49-4.928,8.115-7.924,10.871
			c-2.997,2.757-6.367,4.855-10.112,6.292c-3.746,1.437-7.984,2.155-12.714,2.155c-10.487,0-18.687-3.435-24.601-10.309
			c-5.913-6.873-8.87-14.642-8.87-23.308c0-8.153,2.503-15.42,7.51-21.801c6.347-8.113,14.842-12.17,25.487-12.17
			c10.96,0,19.711,4.156,26.255,12.466c4.652,5.87,7.017,13.196,7.096,21.979h-57.841c0.157,7.466,2.543,13.587,7.157,18.362
			c4.614,4.774,10.313,7.162,17.096,7.162c3.272,0,6.457-0.569,9.553-1.707c3.095-1.137,5.727-2.648,7.896-4.532
			S522.713,381.95,525.236,377.751z M525.236,360.44c-1.104-4.411-2.711-7.936-4.821-10.576c-2.11-2.638-4.9-4.765-8.371-6.381
			c-3.471-1.614-7.118-2.422-10.943-2.422c-6.311,0-11.733,2.029-16.268,6.085c-3.313,2.954-5.817,7.385-7.513,13.293H525.236z"/>
		<path fill="#009648" d="M605.084,377.751l6.971,3.663c-2.286,4.49-4.927,8.115-7.924,10.871
			c-2.997,2.757-6.367,4.855-10.112,6.292c-3.747,1.437-7.984,2.155-12.714,2.155c-10.487,0-18.687-3.435-24.601-10.309
			c-5.914-6.873-8.871-14.642-8.871-23.308c0-8.153,2.503-15.42,7.51-21.801c6.347-8.113,14.843-12.17,25.487-12.17
			c10.96,0,19.711,4.156,26.255,12.466c4.651,5.87,7.017,13.196,7.096,21.979h-57.84c0.157,7.466,2.543,13.587,7.157,18.362
			c4.614,4.774,10.313,7.162,17.096,7.162c3.272,0,6.456-0.569,9.553-1.707c3.095-1.137,5.727-2.648,7.896-4.532
			S602.56,381.95,605.084,377.751z M605.084,360.44c-1.104-4.411-2.711-7.936-4.822-10.576c-2.11-2.638-4.9-4.765-8.37-6.381
			c-3.471-1.614-7.119-2.422-10.943-2.422c-6.31,0-11.733,2.029-16.268,6.085c-3.313,2.954-5.817,7.385-7.513,13.293H605.084z"/>
		<path fill="#009648" d="M630.812,334.799h8.271v11.521c3.309-4.411,6.972-7.71,10.989-9.896s8.39-3.279,13.116-3.279
			c4.805,0,9.068,1.221,12.792,3.663c3.721,2.443,6.469,5.731,8.241,9.867s2.658,10.576,2.658,19.32v33.085h-8.271v-30.663
			c0-7.404-0.308-12.348-0.921-14.83c-0.958-4.254-2.797-7.453-5.516-9.601c-2.717-2.146-6.264-3.22-10.636-3.22
			c-5.002,0-9.485,1.654-13.443,4.963c-3.96,3.309-6.568,7.406-7.829,12.289c-0.788,3.19-1.182,9.021-1.182,17.488v23.573h-8.271
			V334.799z"/>
	</g>
</g>
<g>
	<path d="M707.116,312.17h8.687v52.464c0,6.224,0.118,10.103,0.354,11.639c0.432,3.427,1.437,6.292,3.012,8.596
		s3.998,4.235,7.269,5.79c3.268,1.557,6.557,2.334,9.865,2.334c2.875,0,5.633-0.61,8.271-1.832c2.639-1.22,4.845-2.915,6.617-5.081
		c1.772-2.166,3.072-4.786,3.899-7.858c0.591-2.206,0.887-6.735,0.887-13.589V312.17h8.685v52.464c0,7.76-0.759,14.032-2.274,18.817
		c-1.517,4.786-4.549,8.951-9.099,12.496c-4.549,3.545-10.054,5.317-16.514,5.317c-7.011,0-13.018-1.675-18.019-5.022
		c-5.004-3.347-8.352-7.778-10.044-13.293c-1.063-3.387-1.597-9.492-1.597-18.315V312.17z"/>
	<path d="M786.02,334.798h8.271v11.816c3.266-4.49,7.023-7.858,11.272-10.103c4.25-2.245,8.991-3.368,14.225-3.368
		c9.129,0,16.938,3.29,23.431,9.867c6.493,6.579,9.74,14.496,9.74,23.751c0,9.453-3.217,17.479-9.65,24.076
		c-6.434,6.598-14.194,9.896-23.284,9.896c-5.115,0-9.818-1.063-14.106-3.19c-4.289-2.126-8.166-5.296-11.627-9.512v34.562h-8.271
		V334.798z M819.105,341.12c-7.152,0-13.175,2.5-18.067,7.496c-4.894,4.997-7.338,11.213-7.338,18.648
		c0,4.879,1.09,9.266,3.271,13.161c2.181,3.895,5.305,6.982,9.372,9.265c4.066,2.282,8.359,3.423,12.88,3.423
		c4.44,0,8.615-1.15,12.525-3.453c3.91-2.301,7.023-5.518,9.343-9.648c2.318-4.13,3.478-8.458,3.478-12.983
		c0-4.563-1.15-8.891-3.449-12.982s-5.393-7.269-9.283-9.532C827.947,342.252,823.703,341.12,819.105,341.12z"/>
</g>
</svg>
