<?xml version="1.0" encoding="utf-8"?>
<!-- Generator: Adobe Illustrator 15.1.0, SVG Export Plug-In . SVG Version: 6.00 Build 0)  -->
<!DOCTYPE svg PUBLIC "-//W3C//DTD SVG 1.1//EN" "http://www.w3.org/Graphics/SVG/1.1/DTD/svg11.dtd">
<svg version="1.1" id="Layer_1" xmlns="http://www.w3.org/2000/svg" xmlns:xlink="http://www.w3.org/1999/xlink" x="0px" y="0px"
	 width="237.6px" height="156.24px" viewBox="0 0 237.6 156.24" enable-background="new 0 0 237.6 156.24" xml:space="preserve">
<polygon fill="#004B25" stroke="#000000" stroke-width="0.1965" stroke-miterlimit="10" points="68.445,46.377 98.815,56.592 
	118.629,49.566 138.587,57.607 169.506,46.084 182.17,91.915 147.35,107.762 118.629,100.461 90.396,107.762 55.294,92.261 "/>
<g>
	<g>
		<polygon fill="#009849" points="93.467,62.091 86.947,96.06 63.958,85.133 72.45,53.284 		"/>
		<g>
			<path fill="#009849" d="M92.83,61.916c-2,10.424-4,20.846-6.001,31.269c-0.136,0.71-0.272,1.419-0.409,2.129
				c-0.204,1.062,0.537,0.022,0.682,0.092c-1.928-0.917-3.857-1.833-5.785-2.75c-5.451-2.591-10.902-5.182-16.353-7.772
				c-1.011-0.48-0.247-0.037-0.33,0.275c0.138-0.517,0.275-1.033,0.413-1.549c0.686-2.571,1.371-5.143,2.056-7.713
				c1.7-6.375,3.4-12.75,5.1-19.126c0.215-0.807,0.43-1.613,0.646-2.421c0.376-1.412-0.095-0.229-0.531-0.411
				c2.116,0.887,4.231,1.772,6.347,2.659c4.824,2.021,9.648,4.043,14.472,6.064c0.774,0.324,1.444-0.814,0.66-1.143
				c-7.006-2.936-14.012-5.871-21.017-8.807c-0.383-0.16-0.847-0.053-0.967,0.396c-2.831,10.617-5.661,21.233-8.492,31.85
				c-0.072,0.27,0.041,0.619,0.307,0.745c7.663,3.643,15.326,7.284,22.989,10.927c0.356,0.169,0.881,0.05,0.967-0.397
				c2.173-11.322,4.346-22.646,6.52-33.968C94.263,61.434,92.991,61.081,92.83,61.916z"/>
		</g>
	</g>
	<g>
		<polygon fill="#009849" points="144.36,61.744 150.648,96.426 173.704,85.188 165.423,52.812 		"/>
		<g>
			<path fill="#009849" d="M143.704,61.92c2.097,11.561,4.192,23.121,6.288,34.682c0.084,0.464,0.635,0.588,1,0.41
				c7.686-3.746,15.37-7.492,23.056-11.238c0.271-0.132,0.383-0.486,0.312-0.762c-2.761-10.792-5.521-21.584-8.281-32.376
				c-0.12-0.47-0.605-0.577-1-0.41c-7.021,2.978-14.042,5.955-21.062,8.933c-0.804,0.341-0.108,1.51,0.688,1.172
				c4.55-1.93,9.099-3.859,13.648-5.789c2.325-0.986,4.651-1.972,6.977-2.958c0.894-0.379-0.657-0.968-0.479-0.272
				c0.2,0.781,0.4,1.563,0.6,2.346c1.593,6.225,3.185,12.45,4.777,18.675c0.713,2.788,1.426,5.575,2.139,8.363
				c0.18,0.701,0.358,1.401,0.538,2.103c0.263,1.026,0.718-0.322,0.068-0.006c-5.296,2.581-10.591,5.163-15.887,7.744
				c-2.131,1.038-4.262,2.077-6.392,3.115c-0.812,0.396,0.68,0.979,0.553,0.279c-0.142-0.78-0.283-1.561-0.424-2.34
				c-1.936-10.674-3.871-21.348-5.806-32.021C144.86,60.706,143.549,61.064,143.704,61.92z"/>
		</g>
	</g>
	<g>
		<polygon fill="#009849" points="136.83,62.351 142.844,96.768 123.135,91.758 123.135,56.831 		"/>
		<g>
			<path fill="#009849" d="M136.198,62.52c1.659,9.494,3.318,18.988,4.977,28.481c0.296,1.691,0.592,3.383,0.887,5.074
				c0.276,1.58-0.104-0.208,0.895,0.046c-0.623-0.158-1.246-0.316-1.869-0.475c-5.469-1.39-10.938-2.78-16.407-4.17
				c-1.755-0.446-0.891,0.652-0.891-0.588c0-1.979,0-3.957,0-5.936c0-6.256,0-12.512,0-18.768c0-2.401,0-4.802,0-7.203
				c0-0.607,0-1.216,0-1.824c0-0.516-1.213,0.148-0.188,0.561c4.353,1.754,8.704,3.508,13.057,5.263
				c0.783,0.315,1.117-0.95,0.346-1.262c-4.565-1.84-9.131-3.68-13.695-5.52c-0.397-0.16-0.827,0.239-0.827,0.626
				c0,11.643,0,23.285,0,34.927c0,0.289,0.197,0.563,0.481,0.636c6.57,1.67,13.14,3.34,19.709,5.01
				c0.512,0.13,0.889-0.318,0.805-0.8c-2.005-11.473-4.01-22.945-6.014-34.417C137.316,61.351,136.055,61.696,136.198,62.52z"/>
		</g>
	</g>
	<g>
		<polygon fill="#009849" points="100.671,62.352 94.657,96.768 114.366,91.758 114.366,56.832 		"/>
		<g>
			<path fill="#009849" d="M100.04,62.179c-2.004,11.472-4.009,22.944-6.014,34.416c-0.083,0.48,0.287,0.935,0.8,0.805
				c6.57-1.67,13.14-3.34,19.709-5.01c0.28-0.071,0.485-0.339,0.485-0.627c0-11.643,0-23.284,0-34.927
				c0-0.385-0.418-0.799-0.823-0.636c-4.565,1.84-9.13,3.68-13.695,5.52c-0.772,0.312-0.443,1.577,0.338,1.263
				c4.199-1.691,8.398-3.385,12.597-5.076c1.296-0.523,0.275-1.648,0.275,0.588c0,2.27,0,4.538,0,6.808c0,5.992,0,11.984,0,17.977
				c0,2.27,0,4.539,0,6.808c0,0.508,0,1.015,0,1.521c0-0.39,0.789-0.559-0.415-0.252c-5.183,1.317-10.366,2.635-15.549,3.952
				c-0.914,0.232-1.828,0.465-2.742,0.696c-0.951,0.242,0.223,1.277,0.338,0.618c0.284-1.626,0.568-3.252,0.852-4.878
				c1.702-9.74,3.404-19.48,5.106-29.221C101.446,61.699,100.185,61.349,100.04,62.179z"/>
		</g>
	</g>
</g>
</svg>
