<?xml version="1.0" encoding="UTF-8" standalone="no"?>
<!-- Generator: Adobe Illustrator 15.1.0, SVG Export Plug-In . SVG Version: 6.00 Build 0)  -->

<svg
   xmlns:dc="http://purl.org/dc/elements/1.1/"
   xmlns:cc="http://creativecommons.org/ns#"
   xmlns:rdf="http://www.w3.org/1999/02/22-rdf-syntax-ns#"
   xmlns:svg="http://www.w3.org/2000/svg"
   xmlns="http://www.w3.org/2000/svg"
   xmlns:sodipodi="http://sodipodi.sourceforge.net/DTD/sodipodi-0.dtd"
   xmlns:inkscape="http://www.inkscape.org/namespaces/inkscape"
   version="1.1"
   id="Layer_1"
   x="0px"
   y="0px"
   width="126.876"
   height="61.678001"
   viewBox="0 0 126.876 61.677999"
   enable-background="new 0 0 237.6 156.24"
   xml:space="preserve"
   inkscape:version="0.48.3.1 r9886"
   sodipodi:docname="map.svg"><metadata
   id="metadata43"><rdf:RDF><cc:Work
       rdf:about=""><dc:format>image/svg+xml</dc:format><dc:type
         rdf:resource="http://purl.org/dc/dcmitype/StillImage" /></cc:Work></rdf:RDF></metadata><defs
   id="defs41" /><sodipodi:namedview
   pagecolor="#ffffff"
   bordercolor="#666666"
   borderopacity="1"
   objecttolerance="10"
   gridtolerance="10"
   guidetolerance="10"
   inkscape:pageopacity="0"
   inkscape:pageshadow="2"
   inkscape:window-width="734"
   inkscape:window-height="480"
   id="namedview39"
   showgrid="false"
   fit-margin-top="0"
   fit-margin-left="0"
   fit-margin-right="0"
   fit-margin-bottom="0"
   inkscape:zoom="1.266835"
   inkscape:cx="63.506002"
   inkscape:cy="29.642001"
   inkscape:window-x="0"
   inkscape:window-y="24"
   inkscape:window-maximized="0"
   inkscape:current-layer="Layer_1" />
<polygon
   stroke-miterlimit="10"
   points="138.587,57.607 169.506,46.084 182.17,91.915 147.35,107.762 118.629,100.461 90.396,107.762 55.294,92.261 68.445,46.377 98.815,56.592 118.629,49.566 "
   id="polygon3"
   style="fill:#004a24;fill-opacity:1;stroke:none"
   transform="translate(-55.294,-46.084001)" />
<g
   id="g5"
   style="fill:#009246;fill-opacity:1"
   transform="translate(-55.294,-46.084001)">
	<g
   id="g7"
   style="fill:#009246;fill-opacity:1">
		<polygon
   points="72.45,53.284 93.467,62.091 86.947,96.06 63.958,85.133 "
   id="polygon9"
   style="fill:#009246;fill-opacity:1" />
		<g
   id="g11"
   style="fill:#009246;fill-opacity:1">
			<path
   d="m 92.83,61.916 c -2,10.424 -4,20.846 -6.001,31.269 -0.136,0.71 -0.272,1.419 -0.409,2.129 -0.204,1.062 0.537,0.022 0.682,0.092 -1.928,-0.917 -3.857,-1.833 -5.785,-2.75 -5.451,-2.591 -10.902,-5.182 -16.353,-7.772 -1.011,-0.48 -0.247,-0.037 -0.33,0.275 0.138,-0.517 0.275,-1.033 0.413,-1.549 0.686,-2.571 1.371,-5.143 2.056,-7.713 1.7,-6.375 3.4,-12.75 5.1,-19.126 0.215,-0.807 0.43,-1.613 0.646,-2.421 0.376,-1.412 -0.095,-0.229 -0.531,-0.411 2.116,0.887 4.231,1.772 6.347,2.659 4.824,2.021 9.648,4.043 14.472,6.064 0.774,0.324 1.444,-0.814 0.66,-1.143 -7.006,-2.936 -14.012,-5.871 -21.017,-8.807 -0.383,-0.16 -0.847,-0.053 -0.967,0.396 -2.831,10.617 -5.661,21.233 -8.492,31.85 -0.072,0.27 0.041,0.619 0.307,0.745 7.663,3.643 15.326,7.284 22.989,10.927 0.356,0.169 0.881,0.05 0.967,-0.397 2.173,-11.322 4.346,-22.646 6.52,-33.968 0.159,-0.831 -1.113,-1.184 -1.274,-0.349 z"
   id="path13"
   style="fill:#009246;fill-opacity:1"
   inkscape:connector-curvature="0" />
		</g>
	</g>
	<g
   id="g15"
   style="fill:#009246;fill-opacity:1">
		<polygon
   points="165.423,52.812 144.36,61.744 150.648,96.426 173.704,85.188 "
   id="polygon17"
   style="fill:#009246;fill-opacity:1" />
		<g
   id="g19"
   style="fill:#009246;fill-opacity:1">
			<path
   d="m 143.704,61.92 c 2.097,11.561 4.192,23.121 6.288,34.682 0.084,0.464 0.635,0.588 1,0.41 7.686,-3.746 15.37,-7.492 23.056,-11.238 0.271,-0.132 0.383,-0.486 0.312,-0.762 -2.761,-10.792 -5.521,-21.584 -8.281,-32.376 -0.12,-0.47 -0.605,-0.577 -1,-0.41 -7.021,2.978 -14.042,5.955 -21.062,8.933 -0.804,0.341 -0.108,1.51 0.688,1.172 4.55,-1.93 9.099,-3.859 13.648,-5.789 2.325,-0.986 4.651,-1.972 6.977,-2.958 0.894,-0.379 -0.657,-0.968 -0.479,-0.272 0.2,0.781 0.4,1.563 0.6,2.346 1.593,6.225 3.185,12.45 4.777,18.675 0.713,2.788 1.426,5.575 2.139,8.363 0.18,0.701 0.358,1.401 0.538,2.103 0.263,1.026 0.718,-0.322 0.068,-0.006 -5.296,2.581 -10.591,5.163 -15.887,7.744 -2.131,1.038 -4.262,2.077 -6.392,3.115 -0.812,0.396 0.68,0.979 0.553,0.279 -0.142,-0.78 -0.283,-1.561 -0.424,-2.34 -1.936,-10.674 -3.871,-21.348 -5.806,-32.021 -0.157,-0.864 -1.468,-0.506 -1.313,0.35 z"
   id="path21"
   style="fill:#009246;fill-opacity:1"
   inkscape:connector-curvature="0" />
		</g>
	</g>
	<g
   id="g23"
   style="fill:#009246;fill-opacity:1">
		<polygon
   points="123.135,56.831 136.83,62.351 142.844,96.768 123.135,91.758 "
   id="polygon25"
   style="fill:#009246;fill-opacity:1" />
		<g
   id="g27"
   style="fill:#009246;fill-opacity:1">
			<path
   d="m 136.198,62.52 c 1.659,9.494 3.318,18.988 4.977,28.481 0.296,1.691 0.592,3.383 0.887,5.074 0.276,1.58 -0.104,-0.208 0.895,0.046 -0.623,-0.158 -1.246,-0.316 -1.869,-0.475 -5.469,-1.39 -10.938,-2.78 -16.407,-4.17 -1.755,-0.446 -0.891,0.652 -0.891,-0.588 0,-1.979 0,-3.957 0,-5.936 0,-6.256 0,-12.512 0,-18.768 0,-2.401 0,-4.802 0,-7.203 0,-0.607 0,-1.216 0,-1.824 0,-0.516 -1.213,0.148 -0.188,0.561 4.353,1.754 8.704,3.508 13.057,5.263 0.783,0.315 1.117,-0.95 0.346,-1.262 -4.565,-1.84 -9.131,-3.68 -13.695,-5.52 -0.397,-0.16 -0.827,0.239 -0.827,0.626 0,11.643 0,23.285 0,34.927 0,0.289 0.197,0.563 0.481,0.636 6.57,1.67 13.14,3.34 19.709,5.01 0.512,0.13 0.889,-0.318 0.805,-0.8 -2.005,-11.473 -4.01,-22.945 -6.014,-34.417 -0.148,-0.83 -1.409,-0.485 -1.266,0.339 z"
   id="path29"
   style="fill:#009246;fill-opacity:1"
   inkscape:connector-curvature="0" />
		</g>
	</g>
	<g
   id="g31"
   style="fill:#009246;fill-opacity:1">
		<polygon
   points="114.366,56.832 100.671,62.352 94.657,96.768 114.366,91.758 "
   id="polygon33"
   style="fill:#009246;fill-opacity:1" />
		<g
   id="g35"
   style="fill:#009246;fill-opacity:1">
			<path
   d="m 100.04,62.179 c -2.004,11.472 -4.009,22.944 -6.014,34.416 -0.083,0.48 0.287,0.935 0.8,0.805 6.57,-1.67 13.14,-3.34 19.709,-5.01 0.28,-0.071 0.485,-0.339 0.485,-0.627 0,-11.643 0,-23.284 0,-34.927 0,-0.385 -0.418,-0.799 -0.823,-0.636 -4.565,1.84 -9.13,3.68 -13.695,5.52 -0.772,0.312 -0.443,1.577 0.338,1.263 4.199,-1.691 8.398,-3.385 12.597,-5.076 1.296,-0.523 0.275,-1.648 0.275,0.588 0,2.27 0,4.538 0,6.808 0,5.992 0,11.984 0,17.977 0,2.27 0,4.539 0,6.808 0,0.508 0,1.015 0,1.521 0,-0.39 0.789,-0.559 -0.415,-0.252 -5.183,1.317 -10.366,2.635 -15.549,3.952 -0.914,0.232 -1.828,0.465 -2.742,0.696 -0.951,0.242 0.223,1.277 0.338,0.618 0.284,-1.626 0.568,-3.252 0.852,-4.878 1.702,-9.74 3.404,-19.48 5.106,-29.221 0.144,-0.825 -1.117,-1.175 -1.262,-0.345 z"
   id="path37"
   style="fill:#009246;fill-opacity:1"
   inkscape:connector-curvature="0" />
		</g>
	</g>
</g>
</svg>