<?xml version="1.0" encoding="UTF-8" standalone="no"?>
<!-- Created with Inkscape (http://www.inkscape.org/) -->

<svg
   xmlns:dc="http://purl.org/dc/elements/1.1/"
   xmlns:cc="http://creativecommons.org/ns#"
   xmlns:rdf="http://www.w3.org/1999/02/22-rdf-syntax-ns#"
   xmlns:svg="http://www.w3.org/2000/svg"
   xmlns="http://www.w3.org/2000/svg"
   xmlns:sodipodi="http://sodipodi.sourceforge.net/DTD/sodipodi-0.dtd"
   xmlns:inkscape="http://www.inkscape.org/namespaces/inkscape"
   width="148.64278"
   height="156.92848"
   id="svg2"
   version="1.1"
   inkscape:version="0.48.3.1 r9886"
   sodipodi:docname="pinwheel.svg">
  <defs
     id="defs4">
    <filter
       inkscape:collect="always"
       id="filter3872"
       x="-0.10933346"
       width="1.2186669"
       y="-0.060625553"
       height="1.1212511"
       color-interpolation-filters="sRGB">
      <feGaussianBlur
         inkscape:collect="always"
         stdDeviation="1.6552478"
         id="feGaussianBlur3874" />
    </filter>
    <filter
       color-interpolation-filters="sRGB"
       inkscape:collect="always"
       id="filter3872-8"
       x="-0.10933346"
       width="1.2186669"
       y="-0.060625553"
       height="1.1212511">
      <feGaussianBlur
         inkscape:collect="always"
         stdDeviation="1.6552478"
         id="feGaussianBlur3874-8" />
    </filter>
    <filter
       color-interpolation-filters="sRGB"
       inkscape:collect="always"
       id="filter3872-8-6"
       x="-0.10933346"
       width="1.2186669"
       y="-0.060625553"
       height="1.1212511">
      <feGaussianBlur
         inkscape:collect="always"
         stdDeviation="1.6552478"
         id="feGaussianBlur3874-8-8" />
    </filter>
    <filter
       color-interpolation-filters="sRGB"
       inkscape:collect="always"
       id="filter3872-8-6-1"
       x="-0.10933346"
       width="1.2186669"
       y="-0.060625553"
       height="1.1212511">
      <feGaussianBlur
         inkscape:collect="always"
         stdDeviation="1.6552478"
         id="feGaussianBlur3874-8-8-3" />
    </filter>
  </defs>
  <sodipodi:namedview
     id="base"
     pagecolor="#ffffff"
     bordercolor="#666666"
     borderopacity="1.0"
     inkscape:pageopacity="0.0"
     inkscape:pageshadow="2"
     inkscape:zoom="1.4"
     inkscape:cx="-102.61294"
     inkscape:cy="34.352532"
     inkscape:document-units="px"
     inkscape:current-layer="layer1"
     showgrid="false"
     inkscape:window-width="1366"
     inkscape:window-height="718"
     inkscape:window-x="0"
     inkscape:window-y="0"
     inkscape:window-maximized="1"
     fit-margin-top="0"
     fit-margin-left="0"
     fit-margin-right="0"
     fit-margin-bottom="0" />
  <metadata
     id="metadata7">
    <rdf:RDF>
      <cc:Work
         rdf:about="">
        <dc:format>image/svg+xml</dc:format>
        <dc:type
           rdf:resource="http://purl.org/dc/dcmitype/StillImage" />
        <dc:title />
      </cc:Work>
    </rdf:RDF>
  </metadata>
  <g
     inkscape:label="Layer 1"
     inkscape:groupmode="layer"
     id="layer1"
     transform="translate(-235.46433,-418.68366)">
    <path
       style="opacity:0.78600003;fill:#000000;stroke:#333333;stroke-width:0.1;stroke-miterlimit:4;filter:url(#filter3872)"
       d="m 310.7936,422.74167 c 6.01033,31.28222 16.40015,22.66073 16.65945,42.58293 -0.003,7.1469 -6.52476,19.76678 -18.92486,22.94381 -36.57093,-24.79457 -5.36282,-59.74843 2.26541,-65.52674 z"
       id="rect3059-1"
       inkscape:connector-curvature="0"
       sodipodi:nodetypes="cccc" />
    <path
       style="fill:#0088aa;stroke:#333333;stroke-width:0.1;stroke-miterlimit:4"
       d="m 309.08247,419.67865 c 2.4389,31.99651 16.40014,22.66073 16.65945,42.58293 -0.003,7.1469 -6.52477,19.76678 -18.92487,22.94381 -36.57092,-24.79457 -5.36282,-59.74843 2.26542,-65.52674 z"
       id="rect3059"
       inkscape:connector-curvature="0"
       sodipodi:nodetypes="cccc" />
    <path
       style="opacity:0.78600003;fill:#000000;stroke:#333333;stroke-width:0.1;stroke-miterlimit:4;filter:url(#filter3872-8)"
       d="m -69.206403,516.74167 c 6.01033,31.28222 16.40015,22.66073 16.65945,42.58293 -0.003,7.1469 -6.52476,19.76678 -18.92486,22.94381 -36.570927,-24.79457 -5.36282,-59.74843 2.26541,-65.52674 z"
       id="rect3059-1-9"
       inkscape:connector-curvature="0"
       sodipodi:nodetypes="cccc"
       transform="matrix(0,1,-1,0,896.79075,566.21933)" />
    <path
       style="fill:#008000;stroke:#333333;stroke-width:0.1;stroke-miterlimit:4"
       d="m 380.33795,493.9499 c -31.99651,2.4389 -22.66073,16.40015 -42.58293,16.65945 -7.1469,-0.003 -19.76678,-6.52476 -22.94381,-18.92486 24.79457,-36.57092 59.74843,-5.36282 65.52674,2.26541 z"
       id="rect3059-3"
       inkscape:connector-curvature="0"
       sodipodi:nodetypes="cccc" />
    <path
       style="opacity:0.78600003;fill:#000000;stroke:#333333;stroke-width:0.1;stroke-miterlimit:4;filter:url(#filter3872-8-6)"
       d="m -69.206403,516.74167 c 6.01033,31.28222 16.40015,22.66073 16.65945,42.58293 -0.003,7.1469 -6.52476,19.76678 -18.92486,22.94381 -36.570927,-24.79457 -5.36282,-59.74843 2.26541,-65.52674 z"
       id="rect3059-1-9-7"
       inkscape:connector-curvature="0"
       sodipodi:nodetypes="cccc"
       transform="matrix(-1,0,0,-1,239.57142,1088.2958)" />
    <path
       style="fill:#ffcc00;stroke:#333333;stroke-width:0.1;stroke-miterlimit:4"
       d="m 307.06671,568.4911 c -2.4389,-31.99651 -16.40015,-22.66073 -16.65945,-42.58293 0.003,-7.1469 6.52476,-19.76678 18.92486,-22.94381 36.57092,24.79457 5.36282,59.74843 -2.26541,65.52674 z"
       id="rect3059-3-4"
       inkscape:connector-curvature="0"
       sodipodi:nodetypes="cccc" />
    <path
       style="opacity:0.78600003;fill:#000000;stroke:#333333;stroke-width:0.1;stroke-miterlimit:4;filter:url(#filter3872-8-6-1)"
       d="m -69.206403,516.74167 c 6.01033,31.28222 16.40015,22.66073 16.65945,42.58293 -0.003,7.1469 -6.52476,19.76678 -18.92486,22.94381 -36.570927,-24.79457 -5.36282,-59.74843 2.26541,-65.52674 z"
       id="rect3059-1-9-7-5"
       inkscape:connector-curvature="0"
       sodipodi:nodetypes="cccc"
       transform="matrix(0,-1,1,0,-277.21933,426.07647)" />
    <path
       style="fill:#aa0000;stroke:#333333;stroke-width:0.1;stroke-miterlimit:4"
       d="m 237.81122,492.21985 c 31.99651,-2.4389 22.66073,-16.40015 42.58293,-16.65945 7.1469,0.003 19.76678,6.52476 22.94381,18.92486 -24.79457,36.57092 -59.74843,5.36282 -65.52674,-2.26541 z"
       id="rect3059-3-4-2"
       inkscape:connector-curvature="0"
       sodipodi:nodetypes="cccc" />
  </g>
</svg>
