<?xml version="1.0" encoding="UTF-8" standalone="no"?>
<!-- Generator: Adobe Illustrator 15.1.0, SVG Export Plug-In . SVG Version: 6.00 Build 0)  -->

<svg
   xmlns:dc="http://purl.org/dc/elements/1.1/"
   xmlns:cc="http://creativecommons.org/ns#"
   xmlns:rdf="http://www.w3.org/1999/02/22-rdf-syntax-ns#"
   xmlns:svg="http://www.w3.org/2000/svg"
   xmlns="http://www.w3.org/2000/svg"
   xmlns:sodipodi="http://sodipodi.sourceforge.net/DTD/sodipodi-0.dtd"
   xmlns:inkscape="http://www.inkscape.org/namespaces/inkscape"
   version="1.1"
   id="Layer_1"
   x="0px"
   y="0px"
   width="337.69626"
   height="31.634214"
   viewBox="0 0 337.69626 31.634214"
   enable-background="new 0 0 381.6 156.24"
   xml:space="preserve"
   inkscape:version="0.48.3.1 r9886"
   sodipodi:docname="top_bar.svg"><metadata
   id="metadata9"><rdf:RDF><cc:Work
       rdf:about=""><dc:format>image/svg+xml</dc:format><dc:type
         rdf:resource="http://purl.org/dc/dcmitype/StillImage" /></cc:Work></rdf:RDF></metadata><defs
   id="defs7" /><sodipodi:namedview
   pagecolor="#ffffff"
   bordercolor="#666666"
   borderopacity="1"
   objecttolerance="10"
   gridtolerance="10"
   guidetolerance="10"
   inkscape:pageopacity="0"
   inkscape:pageshadow="2"
   inkscape:window-width="640"
   inkscape:window-height="480"
   id="namedview5"
   showgrid="false"
   fit-margin-top="0"
   fit-margin-left="0"
   fit-margin-right="0"
   fit-margin-bottom="0"
   inkscape:zoom="0.75733751"
   inkscape:cx="176.85079"
   inkscape:cy="125.54436"
   inkscape:window-x="0"
   inkscape:window-y="0"
   inkscape:window-maximized="0"
   inkscape:current-layer="_x36_ZgjEG_1_" />
<g
   id="_x36_ZgjEG_1_"
   transform="translate(-13.949216,-172.03015)">
	
		<g
   id="g2986"
   transform="translate(-7.9224914,100.35156)"><path
     style="fill:#bbc5c5"
     d="m 359.35152,84.870884 c -0.119,0.11539 -62.90729,0.407499 -139.52952,0.649131 L 80.50886,85.959347 79.642019,88.981982 C 78.358494,93.457566 70.911215,100.7006 66.1634,102.09094 61.182605,103.5495 50.385453,103.55825 45.505625,102.10767 40.483413,100.61476 33.732746,94.263291 32.173214,89.563659 31.16964,86.539397 30.570039,85.921157 28.447403,85.722024 21.90896,85.108629 22.022899,85.24286 22.022899,78.15336 l 0,-6.47476 168.772501,-7e-6 168.7725,-8e-6 0,6.49125 c 0,3.570188 -0.0974,6.58566 -0.21638,6.701049 z"
     id="path3012"
     inkscape:connector-curvature="0" /><path
     style="fill:#75d0a4"
     d="m 220.32837,84.661091 c -110.35299,5e-6 -139.419085,0.224451 -140.105067,1.081881 -0.476052,0.595032 -1.153158,2.055563 -1.504681,3.245626 -1.828171,6.189174 -9.295165,12.054142 -17.587075,13.813802 -5.76264,1.22292 -12.861217,0.21057 -18.460028,-2.63262 C 38.906149,98.257641 33.65826,92.366848 32.849499,89.144488 31.925424,85.462678 30.744512,84.6611 26.244423,84.6611 l -4.221524,0 0,-6.49125 0,-6.49125 168.772501,-7e-6 168.7725,-8e-6 0,6.49125 0,6.49125 -139.23953,6e-6 z"
     id="path3010"
     inkscape:connector-curvature="0" /><path
     style="fill:#96aaa7"
     d="m 220.32837,84.661091 c -110.35299,5e-6 -139.419085,0.224451 -140.105067,1.081881 -0.476052,0.595032 -1.153158,2.055563 -1.504681,3.245626 -1.828171,6.189174 -9.295165,12.054142 -17.587075,13.813802 -5.76264,1.22292 -12.861217,0.21057 -18.460028,-2.63262 C 38.906149,98.257641 33.65826,92.366848 32.849499,89.144488 31.925424,85.462678 30.744512,84.6611 26.244423,84.6611 l -4.221524,0 0,-6.0585 0,-6.0585 168.772501,-7e-6 168.7725,-8e-6 0,6.0585 0,6.0585 -139.23953,6e-6 z"
     id="path3008"
     inkscape:connector-curvature="0" /><path
     style="fill:#7a8b85"
     d="m 358.9909,84.084085 c -0.31735,0.31735 -63.23141,0.577003 -139.809,0.577006 l -139.232016,6e-6 -1.753874,4.111126 c -2.099403,4.921051 -6.014594,9.20949 -10.73436,11.757697 -2.854356,1.54108 -4.905156,1.86914 -11.68425,1.86915 -6.779095,0 -8.829894,-0.32807 -11.68425,-1.86914 C 39.373384,97.981715 35.458192,93.693276 33.358789,88.772225 31.688344,84.856659 31.442137,84.6611 28.182944,84.6611 c -5.783662,0 -6.160045,-0.402277 -6.160045,-6.583849 l 0,-5.533151 168.772501,-7e-6 168.7725,-8e-6 0,5.4815 c 0,3.014826 -0.25965,5.741151 -0.577,6.0585 z"
     id="path3006"
     inkscape:connector-curvature="0" /><path
     style="fill:#598973"
     d="m 220.59825,83.795591 c -87.57974,4e-6 -139.546438,0.308695 -140.529415,0.834767 -0.857871,0.45912 -1.777151,1.919651 -2.042846,3.245625 -0.872255,4.353073 -5.356025,9.421084 -10.608627,11.990943 -12.642535,6.185414 -27.83928,1.655034 -33.062571,-9.856471 -1.226988,-2.704133 -2.653607,-5.202748 -3.170264,-5.552477 -0.516658,-0.349729 -2.789384,-0.641836 -5.050503,-0.649125 l -4.111125,-0.01325 0,-5.62575 0,-5.62575 168.772501,-7e-6 168.7725,-8e-6 0,5.62575 0,5.62575 -138.96965,6e-6 z"
     id="path3004"
     inkscape:connector-curvature="0" /><path
     style="fill:#526f65"
     d="m 220.1655,83.795591 c -94.43847,4e-6 -139.942377,0.288993 -141.0765,0.895958 -0.920756,0.492774 -1.674101,1.68054 -1.674101,2.639481 0,4.928565 -7.203428,12.153912 -14.183658,14.22682 -5.539352,1.64501 -9.466705,1.61536 -15.302627,-0.11551 C 41.947449,99.668394 35.634611,93.674035 34.221718,88.426951 33.11936,84.333104 32.197615,83.7956 26.279612,83.7956 l -4.256713,0 0,-5.62575 0,-5.62575 168.772501,-7e-6 168.7725,-8e-6 0,5.62575 0,5.62575 -139.4024,6e-6 z"
     id="path3002"
     inkscape:connector-curvature="0" /><path
     style="fill:#159b51"
     d="M 219.23484,84.009359 C 95.484938,84.20247 78.82998,84.381762 78.294247,85.526598 73.310832,96.175906 71.201728,98.329944 62.992516,101.15433 56.799263,103.28512 54.783981,103.26446 48.082959,101.00149 41.188969,98.673354 36.622104,94.424597 34.47293,88.339474 l -1.604829,-4.543874 -5.422601,0 -5.422601,0 0,-5.62575 0,-5.62575 168.772501,-7e-6 168.7725,-8e-6 0,5.623143 0,5.623144 -140.33306,0.218987 z"
     id="path3000"
     inkscape:connector-curvature="0" /><path
     style="fill:#089647"
     d="m 220.00602,83.80741 c -76.75903,0.0065 -140.469588,0.254879 -141.579021,0.551947 -1.527091,0.408902 -1.902511,0.978506 -1.545277,2.34457 0.615173,2.352425 -2.822906,8.185417 -6.358619,10.787935 -3.215581,2.36688 -11.431249,5.344738 -14.745703,5.344738 -3.474365,0 -11.989974,-3.159663 -15.28117,-5.669981 -3.444486,-2.627237 -5.490831,-6.269641 -5.490831,-9.77344 0,-3.08942 -1.110268,-3.59758 -7.860287,-3.597579 -2.817217,0 -5.122213,-0.261439 -5.122213,-0.580975 0,-0.319536 0.681581,-1.360172 1.514625,-2.312525 0.833044,-0.952352 1.068592,-1.4721 0.523441,-1.154996 -0.545151,0.317105 -1.214509,-0.0055 -1.487461,-0.716725 -0.272953,-0.711304 -0.119027,-1.293279 0.342058,-1.293279 1.035425,0 0.717632,-1.934495 -0.459913,-2.799622 -0.476025,-0.349729 75.276862,-0.611091 168.339751,-0.580803 93.06289,0.03029 168.78726,0.228564 168.27638,0.440615 -0.51089,0.21205 -0.75067,1.599789 -0.53286,3.083864 0.31176,2.124119 0.14107,2.548407 -0.80212,1.99385 -0.67575,-0.397315 -0.53777,0.0505 0.31647,1.027082 0.83305,0.952352 1.51463,1.992988 1.51463,2.312525 0,0.319535 -62.80284,0.586295 -139.56188,0.592799 z M 190.36265,72.985531 c -92.348851,-8e-6 -129.999571,-0.101267 -83.66827,-0.225021 46.33131,-0.123753 121.88946,-0.123746 167.907,1.5e-5 46.01755,0.123761 8.11012,0.225014 -84.23873,0.225006 z"
     id="path2998"
     inkscape:connector-curvature="0" /><path
     style="fill:#0e8d47"
     d="m 220.00602,83.80741 c -76.75903,0.0065 -140.469588,0.254879 -141.579021,0.551947 -1.527091,0.408902 -1.902511,0.978506 -1.545277,2.34457 0.615173,2.352425 -2.822906,8.185417 -6.358619,10.787935 -3.215581,2.36688 -11.431249,5.344738 -14.745703,5.344738 -3.474365,0 -11.989974,-3.159663 -15.28117,-5.669981 -3.077101,-2.347019 -5.492355,-6.21256 -5.488489,-8.784164 0.0017,-1.14237 0.866954,-0.605068 3.245625,2.015492 4.655076,5.128458 9.020892,7.286536 15.908969,7.864008 6.426951,0.538812 9.138732,-0.223458 15.140263,-4.255863 4.049288,-2.7207 6.381301,-5.832689 6.381301,-8.51562 0,-1.005415 1.139734,-2.967762 2.532742,-4.36077 2.164788,-2.164788 2.855535,-2.410017 4.754623,-1.687985 1.410063,0.536105 51.914936,0.85008 138.227866,0.859326 135.52596,0.01452 138.36877,0.07071 138.36877,2.735018 0,0.43251 -60.08858,0.764615 -139.56188,0.771349 z M 190.36265,72.985531 c -92.348851,-8e-6 -129.999571,-0.101267 -83.66827,-0.225021 46.33131,-0.123753 121.88946,-0.123746 167.907,1.5e-5 46.01755,0.123761 8.11012,0.225014 -84.23873,0.225006 z M 28.730524,83.942988 c -3.451181,-0.188069 -6.446429,-0.50218 -6.656107,-0.698023 -0.209678,-0.195844 0.243645,-0.980956 1.007384,-1.744695 2.853253,-2.853254 11.923598,-1.564278 11.923598,1.694449 0,0.807814 -1.625398,1.00164 -6.274875,0.748269 z"
     id="path2996"
     inkscape:connector-curvature="0" /><path
     style="fill:#375e4a"
     d="m 219.86044,83.795591 c -76.83911,4e-6 -140.323533,0.236413 -141.076504,0.525355 -2.013885,0.772801 -1.740598,-1.996592 0.305064,-3.091397 1.133974,-0.606885 46.31536,-0.895954 140.0379,-0.895958 139.08158,-6e-6 140.441,0.0268 140.441,2.769594 0,0.38082 -62.86836,0.692403 -139.70746,0.692406 z M 75.320518,92.017848 c -2.626,4.374973 -6.22457,7.036591 -12.374246,9.152392 -6.09776,2.09793 -8.267834,2.08835 -14.524138,-0.0641 -5.932102,-2.040943 -10.31814,-5.17403 -12.119394,-8.65727 -2.10446,-4.069577 -1.493672,-4.609582 1.437622,-1.271022 3.809194,4.338431 10.075913,7.299562 16.771468,7.924803 5.060678,0.472573 6.079583,0.270095 11.114852,-2.208761 3.048892,-1.500964 6.948515,-4.284277 8.665828,-6.185137 3.623539,-4.010824 3.962286,-3.579444 1.028008,1.309125 z M 28.083349,83.940953 c -6.127889,-0.290595 -6.903348,-0.687255 -5.02185,-2.568753 2.204003,-2.204003 11.075596,-0.759031 11.08035,1.804726 0.0014,0.752286 -1.722295,0.969657 -6.0585,0.764027 z"
     id="path2994"
     inkscape:connector-curvature="0" /><path
     style="fill:#148445"
     d="m 220.18011,83.138663 c -95.61778,-0.153778 -139.918123,0.05962 -141.076529,0.679583 -1.32572,0.709503 -1.688682,0.624711 -1.688682,-0.394495 0,-0.714037 0.753345,-1.701428 1.674101,-2.194202 1.133974,-0.606885 46.31536,-0.895954 140.0379,-0.895958 137.07908,-6e-6 140.44085,0.06112 140.44103,2.553219 2e-5,0.261814 -62.72449,0.375148 -139.38782,0.251853 z m -144.948788,8.49466 c -2.974129,4.060286 -7.851468,7.587904 -12.060651,8.723067 -1.924186,0.51893 -4.591246,1.3455 -5.926798,1.83681 -1.740322,0.64021 -2.708881,0.61269 -3.418725,-0.0971 -0.544747,-0.54475 -1.809769,-0.99045 -2.811162,-0.99045 -3.187669,0 -10.686241,-4.347841 -13.393233,-7.765697 -3.467193,-4.377687 -3.369897,-6.136414 0.119609,-2.162085 3.809194,4.338431 10.075913,7.299562 16.771468,7.924803 5.060678,0.472573 6.079583,0.270095 11.114852,-2.208761 3.048892,-1.500964 6.948515,-4.284277 8.665828,-6.185137 3.599433,-3.984143 4.142591,-3.449205 0.938812,0.9246 z M 32.840335,83.794509 c -0.837224,-0.694834 -2.992626,-0.93814 -6.058499,-0.683894 -2.617416,0.217058 -4.758937,0.148395 -4.758937,-0.152583 0,-1.459186 2.407808,-2.624432 5.422999,-2.624432 3.994079,0 6.694001,1.276827 6.694001,3.165677 0,1.123618 -0.236643,1.177377 -1.299564,0.295232 z"
     id="path2992"
     inkscape:connector-curvature="0" /><path
     style="fill:#146636"
     d="m 219.35693,83.362841 c -111.5918,5e-6 -140.21101,-0.220821 -140.211019,-1.081868 -9e-6,-0.861004 28.345379,-1.081877 138.841949,-1.081882 76.36308,-3e-6 139.45803,0.236401 140.211,0.525343 0.75298,0.288942 1.36905,0.775786 1.36905,1.081875 1e-5,0.306089 -63.09493,0.556529 -140.21098,0.556532 z M 70.282895,96.7308 c -2.018504,1.484424 -5.231672,3.119737 -7.140375,3.63403 -1.908703,0.51429 -4.563095,1.33706 -5.898647,1.82837 -1.740322,0.64021 -2.708881,0.61269 -3.418725,-0.0971 -0.544747,-0.54475 -1.809769,-0.99045 -2.811162,-0.99045 -2.458659,0 -10.194007,-3.928852 -12.213495,-6.203342 -1.371189,-1.544331 -1.035015,-1.464374 2.108063,0.501388 2.056673,1.286296 6.31136,2.973414 9.454862,3.74915 5.292833,1.306134 6.117702,1.304934 11.155318,-0.01634 2.991923,-0.784721 7.01358,-2.420211 8.937013,-3.634421 4.576351,-2.888924 4.478273,-2.191715 -0.172852,1.228761 z M 27.433793,83.109186 c -2.737979,0.186705 -5.161602,0.201615 -5.385829,0.03313 -1.004744,-0.754968 2.469703,-1.917919 5.765981,-1.929963 5.559454,-0.02031 5.252206,1.512755 -0.380152,1.896833 z"
     id="path2990"
     inkscape:connector-curvature="0" /><path
     style="fill:#1b4f30"
     d="m 258.95358,83.145382 c -55.33794,-0.1196 -118.33554,-0.318361 -139.99468,-0.441693 -21.659138,-0.123332 23.61733,-0.317584 100.61437,-0.431672 76.99705,-0.114087 139.99466,0.08467 139.99469,0.441693 3e-5,0.357019 -45.27643,0.551271 -100.61438,0.431672 z M 61.331025,101.03727 c -1.008258,-0.0415 -1.213344,-0.24662 -0.522906,-0.52291 0.624782,-0.25001 1.371276,-0.21927 1.658875,0.0683 0.287598,0.2876 -0.223588,0.49216 -1.135969,0.45458 z m -4.558874,1.29174 c -1.231649,0.41138 -2.409968,0.30407 -2.985975,-0.27194 -0.523312,-0.52331 -1.944637,-0.99665 -3.158501,-1.05187 -1.213864,-0.0552 -1.622813,-0.25299 -0.908775,-0.43949 0.714037,-0.1865 3.050887,-0.0189 5.193,0.37234 3.40836,0.62258 3.640675,0.79629 1.860251,1.39096 z M 27.215899,82.989612 c -4.770369,0.479424 -5.898427,0.357415 -5.0002,-0.540811 0.264714,-0.264715 2.569108,-0.358967 5.120875,-0.209447 l 4.639575,0.271852 -4.76025,0.478406 z"
     id="path2988"
     inkscape:connector-curvature="0" /></g>
</g>
</svg>