<?xml version="1.0" encoding="utf-8"?>
<!-- Generator: Adobe Illustrator 15.1.0, SVG Export Plug-In . SVG Version: 6.00 Build 0)  -->
<!DOCTYPE svg PUBLIC "-//W3C//DTD SVG 1.1//EN" "http://www.w3.org/Graphics/SVG/1.1/DTD/svg11.dtd">
<svg version="1.1" id="Layer_1" xmlns="http://www.w3.org/2000/svg" xmlns:xlink="http://www.w3.org/1999/xlink" x="0px" y="0px"
	 width="237.6px" height="156.24px" viewBox="0 0 237.6 156.24" enable-background="new 0 0 237.6 156.24" xml:space="preserve">
<path fill="#004B25" d="M171.4,42.656c-34.994,0-69.989,0-104.984,0c-1.49,0-2.771,1.226-2.771,2.732c0,14.675,0,29.35,0,44.024
	c0,1.491,1.226,2.771,2.732,2.771c2.49,0,4.98,0,7.47,0c-1.15,5.479-2.301,10.96-3.451,16.439c-0.106,0.507,0.012,0.939,0.254,1.271
	c0.358,0.589,1.036,0.964,1.778,0.675c0.256-0.058,0.488-0.187,0.674-0.389c9.443-5.999,18.887-11.997,28.33-17.996
	c23.31,0,46.619,0,69.929,0c0.759,0,1.347-0.26,1.784-0.654c0.583-0.438,0.988-1.123,0.988-2.078c0-14.675,0-29.35,0-44.024
	C174.133,43.937,172.906,42.656,171.4,42.656z"/>
<g>
	<polygon fill="#009849" points="163.731,48.536 71.308,48.536 71.308,82.623 81.16,82.623 76.867,99.268 103.073,82.623 
		163.731,82.623 	"/>
	<g>
		<path fill="#009849" d="M163.738,47.643c-30.809,0-61.616,0-92.424,0c-0.484,0-0.9,0.398-0.9,0.887c0,11.363,0,22.725,0,34.087
			c0,0.484,0.398,0.9,0.887,0.9c3.284,0,6.568,0,9.853,0c-0.285-0.376-0.57-0.753-0.855-1.13
			c-1.431,5.549-2.861,11.097-4.293,16.645c-0.189,0.735,0.636,1.438,1.314,1.007c7.101-4.51,14.2-9.019,21.301-13.528
			c1.359-0.864,2.719-1.728,4.079-2.591c1.104-0.701,0.053-0.402,0.896-0.402c2.798,0,5.596,0,8.393,0c17.246,0,34.491,0,51.736,0
			c0.484,0,0.9-0.398,0.9-0.887c0-11.362,0-22.726,0-34.087c0-1.154-1.787-1.164-1.787-0.014c0,11.068,0,22.135,0,33.202
			c0,1.213,1.666-0.002-0.424-0.002c-2.06,0-4.119,0-6.178,0c-7.109,0-14.219,0-21.328,0c-7.388,0-14.775,0-22.162,0
			c-2.959,0-7.011-0.745-9.904,0.03c-1.314,0.353-2.73,1.687-3.855,2.401c-3.017,1.916-6.033,3.832-9.051,5.748
			c-4.507,2.862-9.014,5.726-13.521,8.588c0.438,0.335,0.876,0.671,1.314,1.007c1.431-5.549,2.861-11.097,4.293-16.645
			c0.143-0.556-0.271-1.13-0.855-1.13c-2.943,0-5.886,0-8.828,0c-1.612,0-0.138,1.377-0.138,0.326c0-1.119,0-2.238,0-3.356
			c0-7.487,0-14.975,0-22.461c0-2.374,0-4.748,0-7.121c0-0.318-1.657,0.312,0.466,0.312c4.421,0,8.842,0,13.263,0
			c25.856,0,51.714,0,77.57,0c0.075,0,0.15,0,0.225,0C164.879,49.43,164.889,47.643,163.738,47.643z"/>
	</g>
</g>
</svg>
