<?xml version="1.0" encoding="UTF-8" standalone="no"?>
<!-- Generator: Adobe Illustrator 15.1.0, SVG Export Plug-In . SVG Version: 6.00 Build 0)  -->

<svg
   xmlns:dc="http://purl.org/dc/elements/1.1/"
   xmlns:cc="http://creativecommons.org/ns#"
   xmlns:rdf="http://www.w3.org/1999/02/22-rdf-syntax-ns#"
   xmlns:svg="http://www.w3.org/2000/svg"
   xmlns="http://www.w3.org/2000/svg"
   xmlns:sodipodi="http://sodipodi.sourceforge.net/DTD/sodipodi-0.dtd"
   xmlns:inkscape="http://www.inkscape.org/namespaces/inkscape"
   version="1.1"
   id="Layer_1"
   x="0px"
   y="0px"
   width="128.64882"
   height="76.515518"
   viewBox="0 0 128.64882 76.515515"
   enable-background="new 0 0 237.6 156.24"
   xml:space="preserve"
   inkscape:version="0.48.3.1 r9886"
   sodipodi:docname="home_active.svg"><metadata
   id="metadata63"><rdf:RDF><cc:Work
       rdf:about=""><dc:format>image/svg+xml</dc:format><dc:type
         rdf:resource="http://purl.org/dc/dcmitype/StillImage" /></cc:Work></rdf:RDF></metadata><defs
   id="defs61" /><sodipodi:namedview
   pagecolor="#ffffff"
   bordercolor="#666666"
   borderopacity="1"
   objecttolerance="10"
   gridtolerance="10"
   guidetolerance="10"
   inkscape:pageopacity="0"
   inkscape:pageshadow="2"
   inkscape:window-width="734"
   inkscape:window-height="480"
   id="namedview59"
   showgrid="false"
   fit-margin-top="0"
   fit-margin-left="0"
   fit-margin-right="0"
   fit-margin-bottom="0"
   inkscape:zoom="1.266835"
   inkscape:cx="64.381704"
   inkscape:cy="36.413001"
   inkscape:window-x="0"
   inkscape:window-y="24"
   inkscape:window-maximized="0"
   inkscape:current-layer="Layer_1" />
<g
   id="g3"
   style="fill:#a4c196;fill-opacity:1"
   transform="translate(-54.418298,-38.017483)">
	<rect
   x="68.929001"
   y="68.239998"
   width="99.857002"
   height="44.872002"
   id="rect5"
   style="fill:#a4c196;fill-opacity:1" />
	<g
   id="g7"
   style="fill:#a4c196;fill-opacity:1">
		<path
   d="m 168.796,111.691 c -33.285,0 -66.571,0 -99.857,0 0.47,0.478 0.94,0.954 1.41,1.431 0,-14.957 0,-29.914 0,-44.872 -0.477,0.47 -0.954,0.94 -1.431,1.41 33.286,0 66.572,0 99.858,0 -0.471,-0.477 -0.94,-0.954 -1.411,-1.431 0,14.958 0,29.915 0,44.873 0,1.834 2.842,1.85 2.842,0.02 0,-14.957 0,-29.914 0,-44.872 0,-0.77 -0.633,-1.431 -1.411,-1.431 -33.285,0 -66.571,0 -99.857,0 -0.77,0 -1.431,0.633 -1.431,1.41 0,14.958 0,29.915 0,44.873 0,0.77 0.633,1.431 1.41,1.431 33.286,0 66.572,0 99.858,0 1.834,0 1.85,-2.842 0.02,-2.842 z"
   id="path9"
   style="fill:#a4c196;fill-opacity:1"
   inkscape:connector-curvature="0" />
	</g>
</g>
<g
   id="g11"
   style="fill:#009246;fill-opacity:1"
   transform="translate(-54.418298,-38.017483)">
	<rect
   x="72.304001"
   y="67.720001"
   width="90.282997"
   height="38.863998"
   id="rect13"
   style="fill:#009246;fill-opacity:1" />
	<g
   id="g15"
   style="fill:#009246;fill-opacity:1">
		<path
   d="m 162.596,105.327 c -30.094,0 -60.188,0 -90.283,0 0.416,0.422 0.832,0.844 1.248,1.266 0,-12.954 0,-25.909 0,-38.864 -0.422,0.416 -0.844,0.832 -1.266,1.248 30.095,0 60.189,0 90.284,0 -0.416,-0.422 -0.832,-0.844 -1.248,-1.266 0,12.955 0,25.91 0,38.865 0,1.623 2.514,1.637 2.514,0.018 0,-12.954 0,-25.909 0,-38.864 0,-0.681 -0.56,-1.266 -1.248,-1.266 -30.094,0 -60.188,0 -90.283,0 -0.681,0 -1.266,0.56 -1.266,1.248 0,12.955 0,25.91 0,38.865 0,0.681 0.56,1.266 1.248,1.266 30.095,0 60.189,0 90.284,0 1.621,-0.002 1.635,-2.516 0.016,-2.516 z"
   id="path17"
   style="fill:#009246;fill-opacity:1"
   inkscape:connector-curvature="0" />
	</g>
</g>
<g
   id="g19"
   transform="translate(-54.418298,-38.017483)">
	<polygon
   points="55.849,73.068 181.659,73.068 119.968,39.27 "
   id="polygon21"
   style="fill:#009246;fill-opacity:1" />
	<g
   id="g23">
		<path
   d="m 55.838,74.489 c 41.937,0 83.874,0 125.811,0 1.399,0 1.987,-1.958 0.72,-2.651 -20.373,-11.162 -40.747,-22.324 -61.12,-33.486 -1.866,-1.022 -3.609,0.541 -5.309,1.437 -5.419,2.856 -10.839,5.713 -16.259,8.57 -13.129,6.92 -26.257,13.841 -39.386,20.762 -1.722,0.907 -3.444,1.815 -5.166,2.723 -1.621,0.854 -0.18,3.304 1.438,2.451 20.96,-11.048 41.92,-22.097 62.88,-33.146 1.912,-1.008 0.378,-0.337 0.066,-0.508 1.332,0.729 2.663,1.459 3.995,2.188 5.71,3.128 11.42,6.256 17.129,9.385 12.456,6.824 24.911,13.648 37.367,20.472 0.981,0.538 1.963,1.076 2.944,1.613 0.24,-0.884 0.48,-1.768 0.72,-2.651 -41.937,0 -83.873,0 -125.81,0 -1.834,-10e-4 -1.85,2.841 -0.02,2.841 z"
   id="path25"
   inkscape:connector-curvature="0"
   style="fill:#9fc294" />
	</g>
</g>
<g
   id="g27"
   style="fill:#a4c196;fill-opacity:1"
   transform="translate(-54.418298,-38.017483)">
	<rect
   x="119.743"
   y="81.568001"
   width="20.98"
   height="28.068001"
   id="rect29"
   style="fill:#a4c196;fill-opacity:1" />
	<g
   id="g31"
   style="fill:#a4c196;fill-opacity:1">
		<path
   d="m 140.733,108.252 c -6.993,0 -13.986,0 -20.98,0 0.458,0.465 0.917,0.93 1.375,1.395 0,-9.355 0,-18.712 0,-28.068 -0.465,0.458 -0.93,0.917 -1.395,1.375 6.993,0 13.986,0 20.98,0 -0.458,-0.465 -0.917,-0.93 -1.375,-1.395 0,9.355 0,18.712 0,28.068 0,1.788 2.77,1.804 2.77,0.02 0,-9.355 0,-18.712 0,-28.068 0,-0.75 -0.617,-1.395 -1.375,-1.395 -6.993,0 -13.986,0 -20.98,0 -0.75,0 -1.395,0.617 -1.395,1.375 0,9.355 0,18.712 0,28.068 0,0.75 0.617,1.395 1.375,1.395 6.993,0 13.986,0 20.98,0 1.789,-0.001 1.805,-2.77 0.02,-2.77 z"
   id="path33"
   style="fill:#a4c196;fill-opacity:1"
   inkscape:connector-curvature="0" />
	</g>
</g>
<g
   id="g35"
   style="fill:#009246;fill-opacity:1"
   transform="translate(-54.418298,-38.017483)">
	<rect
   x="122.823"
   y="83.203003"
   width="10.187"
   height="24.107"
   id="rect37"
   style="fill:#009246;fill-opacity:1" />
	<g
   id="g39"
   style="fill:#009246;fill-opacity:1">
		<path
   d="m 133.017,106.416 c -3.083,0 -6.165,0 -9.247,0 -1.484,0 -0.052,1.491 -0.052,0.156 0,-1.382 0,-2.764 0,-4.146 0,-6.389 0,-12.778 0,-19.167 0,1.02 -1.5,0.839 0.039,0.839 0.761,0 1.522,0 2.283,0 2.008,0 4.016,0 6.023,0 1.484,0 0.052,-1.491 0.052,-0.156 0,1.382 0,2.764 0,4.146 0,6.405 0,12.811 0,19.216 0,1.155 1.789,1.165 1.789,0.014 0,-8.036 0,-16.072 0,-24.107 0,-0.485 -0.398,-0.901 -0.888,-0.901 -3.396,0 -6.791,0 -10.187,0 -0.485,0 -0.901,0.398 -0.901,0.888 0,8.036 0,16.072 0,24.107 0,0.485 0.398,0.901 0.888,0.901 3.396,0 6.791,0 10.187,0 1.155,-0.001 1.165,-1.79 0.014,-1.79 z"
   id="path41"
   style="fill:#009246;fill-opacity:1"
   inkscape:connector-curvature="0" />
	</g>
</g>
<g
   id="g43"
   transform="translate(-54.418298,-38.017483)">
	<rect
   x="83.963997"
   y="82.379997"
   width="21.18"
   height="19.485001"
   id="rect45"
   style="fill:#9fc294" />
	<g
   id="g47">
		<path
   d="m 105.152,100.706 c -7.06,0 -14.12,0 -21.18,0 0.384,0.389 0.767,0.778 1.151,1.168 0,-6.495 0,-12.99 0,-19.485 -0.389,0.383 -0.778,0.767 -1.167,1.15 7.06,0 14.12,0 21.18,0 -0.384,-0.389 -0.767,-0.778 -1.151,-1.168 0,6.495 0,12.99 0,19.485 0,1.497 2.318,1.511 2.318,0.018 0,-6.495 0,-12.99 0,-19.485 0,-0.629 -0.516,-1.168 -1.151,-1.168 -7.06,0 -14.12,0 -21.18,0 -0.628,0 -1.167,0.517 -1.167,1.15 0,6.495 0,12.99 0,19.485 0,0.629 0.516,1.168 1.151,1.168 7.06,0 14.12,0 21.18,0 1.496,0 1.509,-2.318 0.016,-2.318 z"
   id="path49"
   inkscape:connector-curvature="0"
   style="fill:#9fc294" />
	</g>
</g>
<g
   id="g51"
   style="fill:#009246;fill-opacity:1"
   transform="translate(-54.418298,-38.017483)">
	<rect
   x="84.997002"
   y="84.191002"
   width="16.412001"
   height="14.248"
   id="rect53"
   style="fill:#009246;fill-opacity:1" />
	<g
   id="g55"
   style="fill:#009246;fill-opacity:1">
		<path
   d="m 101.416,97.566 c -5.471,0 -10.941,0 -16.412,0 0.289,0.293 0.578,0.586 0.866,0.879 0,-4.749 0,-9.498 0,-14.248 -0.293,0.289 -0.586,0.578 -0.879,0.867 5.471,0 10.941,0 16.412,0 -0.289,-0.293 -0.578,-0.586 -0.866,-0.879 0,4.749 0,9.498 0,14.248 0,1.126 1.745,1.136 1.745,0.012 0,-4.749 0,-9.498 0,-14.248 0,-0.473 -0.389,-0.879 -0.866,-0.879 -5.471,0 -10.941,0 -16.412,0 -0.473,0 -0.879,0.389 -0.879,0.867 0,4.749 0,9.498 0,14.248 0,0.473 0.389,0.879 0.866,0.879 5.471,0 10.941,0 16.412,0 1.127,0 1.137,-1.746 0.013,-1.746 z"
   id="path57"
   style="fill:#009246;fill-opacity:1"
   inkscape:connector-curvature="0" />
	</g>
</g>
</svg>