<?xml version="1.0" encoding="UTF-8" standalone="no"?>
<!-- Generator: Adobe Illustrator 15.1.0, SVG Export Plug-In . SVG Version: 6.00 Build 0)  -->

<svg
   xmlns:dc="http://purl.org/dc/elements/1.1/"
   xmlns:cc="http://creativecommons.org/ns#"
   xmlns:rdf="http://www.w3.org/1999/02/22-rdf-syntax-ns#"
   xmlns:svg="http://www.w3.org/2000/svg"
   xmlns="http://www.w3.org/2000/svg"
   xmlns:sodipodi="http://sodipodi.sourceforge.net/DTD/sodipodi-0.dtd"
   xmlns:inkscape="http://www.inkscape.org/namespaces/inkscape"
   version="1.1"
   id="Layer_1"
   x="0px"
   y="0px"
   width="122.54111"
   height="73.011894"
   viewBox="0 0 122.54111 73.011892"
   enable-background="new 0 0 237.6 156.24"
   xml:space="preserve"
   inkscape:version="0.48.3.1 r9886"
   sodipodi:docname="home.svg"><metadata
   id="metadata61"><rdf:RDF><cc:Work
       rdf:about=""><dc:format>image/svg+xml</dc:format><dc:type
         rdf:resource="http://purl.org/dc/dcmitype/StillImage" /></cc:Work></rdf:RDF></metadata><defs
   id="defs59" /><sodipodi:namedview
   pagecolor="#ffffff"
   bordercolor="#666666"
   borderopacity="1"
   objecttolerance="10"
   gridtolerance="10"
   guidetolerance="10"
   inkscape:pageopacity="0"
   inkscape:pageshadow="2"
   inkscape:window-width="734"
   inkscape:window-height="480"
   id="namedview57"
   showgrid="false"
   fit-margin-top="0"
   fit-margin-left="0"
   fit-margin-right="0"
   fit-margin-bottom="0"
   inkscape:zoom="1.266835"
   inkscape:cx="60.992846"
   inkscape:cy="34.725001"
   inkscape:window-x="0"
   inkscape:window-y="24"
   inkscape:window-maximized="0"
   inkscape:current-layer="Layer_1" />
<g
   id="g3"
   transform="translate(-57.807156,-39.833107)"
   style="fill:#004a24;fill-opacity:1">
	<rect
   x="71.626999"
   y="68.748001"
   width="95.117996"
   height="42.742001"
   id="rect5"
   style="fill:#004a24;fill-opacity:1" />
	<g
   id="g7"
   style="fill:#004a24;fill-opacity:1">
		<path
   d="m 166.755,110.137 c -31.706,0 -63.412,0 -95.118,0 0.448,0.455 0.896,0.909 1.343,1.363 0,-14.247 0,-28.495 0,-42.742 -0.454,0.447 -0.909,0.896 -1.363,1.344 31.706,0 63.412,0 95.118,0 -0.448,-0.455 -0.896,-0.909 -1.343,-1.363 0,14.247 0,28.495 0,42.742 0,1.747 2.705,1.763 2.705,0.02 0,-14.247 0,-28.495 0,-42.742 0,-0.733 -0.602,-1.363 -1.343,-1.363 -31.706,0 -63.412,0 -95.118,0 -0.733,0 -1.363,0.604 -1.363,1.344 0,14.247 0,28.495 0,42.742 0,0.733 0.603,1.363 1.343,1.363 31.706,0 63.412,0 95.118,0 1.748,-0.001 1.764,-2.708 0.021,-2.708 z"
   id="path9"
   inkscape:connector-curvature="0"
   style="fill:#004a24;fill-opacity:1" />
	</g>
</g>
<g
   id="g11"
   transform="translate(-57.807156,-39.833107)"
   style="fill:#009246;fill-opacity:1">
	<rect
   x="74.842003"
   y="75.623001"
   width="85.998001"
   height="29.648001"
   id="rect13"
   style="fill:#009246;fill-opacity:1" />
	<g
   id="g15"
   style="fill:#009246;fill-opacity:1">
		<path
   d="m 160.848,104.2 c -28.666,0 -57.332,0 -85.998,0 0.354,0.359 0.709,0.72 1.064,1.079 0,-9.883 0,-19.766 0,-29.648 -0.36,0.354 -0.72,0.709 -1.08,1.063 28.666,0 57.332,0 85.998,0 -0.354,-0.359 -0.709,-0.72 -1.064,-1.079 0,9.883 0,19.766 0,29.648 0,1.384 2.145,1.396 2.145,0.016 0,-9.883 0,-19.766 0,-29.648 0,-0.58 -0.479,-1.08 -1.064,-1.08 -28.666,0 -57.332,0 -85.998,0 -0.581,0 -1.08,0.479 -1.08,1.064 0,9.883 0,19.766 0,29.648 0,0.581 0.478,1.079 1.064,1.079 28.666,0 57.332,0 85.998,0 1.383,0.001 1.396,-2.142 0.015,-2.142 z"
   id="path17"
   inkscape:connector-curvature="0"
   style="fill:#009246;fill-opacity:1" />
	</g>
</g>
<g
   id="g19"
   transform="translate(-57.807156,-39.833107)"
   style="fill:#004a24;fill-opacity:1">
	<polygon
   points="59.168,73.347 179.006,73.347 120.244,41.152 "
   id="polygon21"
   style="fill:#004a24;fill-opacity:1" />
	<g
   id="g23"
   style="fill:#004a24;fill-opacity:1">
		<path
   d="m 59.159,74.7 c 39.946,0 79.892,0 119.837,0 1.334,0 1.894,-1.864 0.688,-2.525 C 160.102,61.446 140.52,50.719 120.938,39.99 c -1.665,-0.912 -5.979,2.42 -7.286,3.108 -6.167,3.251 -12.334,6.502 -18.501,9.753 -11.791,6.215 -23.583,12.431 -35.374,18.646 -0.431,0.227 -0.862,0.454 -1.293,0.682 -1.544,0.813 -0.171,3.146 1.37,2.334 20.271,-10.685 40.541,-21.369 60.812,-32.055 -0.365,0.191 -1.679,-0.453 0.219,0.587 1.943,1.065 3.889,2.13 5.832,3.195 6.395,3.503 12.788,7.007 19.182,10.51 10.721,5.873 21.441,11.747 32.162,17.62 0.09,0.049 0.18,0.099 0.27,0.147 0.229,-0.842 0.457,-1.684 0.686,-2.525 -39.945,0 -79.892,0 -119.837,0 -1.75,10e-4 -1.765,2.708 -0.021,2.708 z"
   id="path25"
   inkscape:connector-curvature="0"
   style="fill:#004a24;fill-opacity:1" />
	</g>
</g>
<g
   id="g27"
   transform="translate(-57.807156,-39.833107)">
	<rect
   x="120.029"
   y="81.443001"
   width="19.985001"
   height="26.736"
   id="rect29"
   style="fill:#004b25" />
	<g
   id="g31">
		<path
   d="m 140.023,106.86 c -6.661,0 -13.322,0 -19.984,0 0.437,0.443 0.873,0.886 1.31,1.329 0,-8.912 0,-17.824 0,-26.736 -0.442,0.437 -0.886,0.873 -1.328,1.31 6.661,0 13.323,0 19.985,0 -0.438,-0.443 -0.873,-0.886 -1.311,-1.329 0,8.912 0,17.824 0,26.736 0,1.703 2.639,1.719 2.639,0.02 0,-8.912 0,-17.824 0,-26.736 0,-0.715 -0.588,-1.329 -1.311,-1.329 -6.661,0 -13.322,0 -19.984,0 -0.714,0 -1.328,0.588 -1.328,1.31 0,8.912 0,17.824 0,26.736 0,0.715 0.587,1.329 1.31,1.329 6.661,0 13.323,0 19.985,0 1.702,-0.001 1.717,-2.64 0.017,-2.64 z"
   id="path33"
   inkscape:connector-curvature="0"
   style="fill:#004b25" />
	</g>
</g>
<g
   id="g35"
   transform="translate(-57.807156,-39.833107)"
   style="fill:#009246;fill-opacity:1">
	<g
   id="g37"
   style="fill:#009246;fill-opacity:1">
		<path
   d="m 133.672,112.844 c 0,-10.678 0,-19.158 0,-29.837 0,-0.545 -0.447,-1.013 -0.998,-1.013 -3.234,0 -6.469,0 -9.703,0 -0.545,0 -1.013,0.448 -1.013,0.999 0,10.678 0,19.172 0,29.851 h 11.714 z"
   id="path39"
   inkscape:connector-curvature="0"
   style="fill:#009246;fill-opacity:1" />
	</g>
</g>
<g
   id="g41"
   transform="translate(-57.807156,-39.833107)">
	<rect
   x="85.947998"
   y="82.217003"
   width="20.174"
   height="18.559999"
   id="rect43"
   style="fill:#004b25" />
	<g
   id="g45">
		<path
   d="m 106.13,99.672 c -6.725,0 -13.449,0 -20.174,0 0.366,0.371 0.731,0.742 1.096,1.112 0,-6.187 0,-12.373 0,-18.56 -0.371,0.365 -0.741,0.731 -1.112,1.097 6.725,0 13.449,0 20.174,0 -0.366,-0.371 -0.731,-0.742 -1.096,-1.112 0,6.187 0,12.373 0,18.56 0,1.426 2.208,1.438 2.208,0.016 0,-6.187 0,-12.373 0,-18.56 0,-0.599 -0.492,-1.112 -1.096,-1.112 -6.725,0 -13.449,0 -20.174,0 -0.598,0 -1.112,0.492 -1.112,1.097 0,6.187 0,12.373 0,18.56 0,0.599 0.492,1.112 1.096,1.112 6.725,0 13.449,0 20.174,0 1.427,-0.001 1.439,-2.21 0.016,-2.21 z"
   id="path47"
   inkscape:connector-curvature="0"
   style="fill:#004b25" />
	</g>
</g>
<g
   id="g49"
   transform="translate(-57.807156,-39.833107)">
	<rect
   x="86.933998"
   y="83.942001"
   width="15.632"
   height="13.571"
   id="rect51"
   style="fill:#009849" />
	<g
   id="g53">
		<path
   d="m 102.572,96.683 c -5.21,0 -10.421,0 -15.632,0 0.275,0.279 0.55,0.558 0.825,0.837 0,-4.523 0,-9.048 0,-13.571 -0.279,0.275 -0.558,0.55 -0.837,0.825 5.21,0 10.421,0 15.632,0 -0.275,-0.279 -0.55,-0.558 -0.825,-0.837 0,4.523 0,9.048 0,13.571 0,1.073 1.662,1.083 1.662,0.012 0,-4.523 0,-9.048 0,-13.571 0,-0.45 -0.37,-0.837 -0.825,-0.837 -5.21,0 -10.421,0 -15.632,0 -0.45,0 -0.837,0.37 -0.837,0.825 0,4.523 0,9.048 0,13.571 0,0.45 0.37,0.837 0.825,0.837 5.21,0 10.421,0 15.632,0 1.073,0 1.083,-1.662 0.012,-1.662 z"
   id="path55"
   inkscape:connector-curvature="0"
   style="fill:#009849" />
	</g>
</g>
</svg>