<?xml version="1.0" encoding="UTF-8" standalone="no"?>
<!-- Generator: Adobe Illustrator 15.1.0, SVG Export Plug-In . SVG Version: 6.00 Build 0)  -->

<svg
   xmlns:dc="http://purl.org/dc/elements/1.1/"
   xmlns:cc="http://creativecommons.org/ns#"
   xmlns:rdf="http://www.w3.org/1999/02/22-rdf-syntax-ns#"
   xmlns:svg="http://www.w3.org/2000/svg"
   xmlns="http://www.w3.org/2000/svg"
   xmlns:sodipodi="http://sodipodi.sourceforge.net/DTD/sodipodi-0.dtd"
   xmlns:inkscape="http://www.inkscape.org/namespaces/inkscape"
   version="1.1"
   id="Layer_1"
   x="0px"
   y="0px"
   width="126.875"
   height="61.678001"
   viewBox="0 0 126.875 61.678"
   enable-background="new 0 0 237.6 156.24"
   xml:space="preserve"
   inkscape:version="0.48.3.1 r9886"
   sodipodi:docname="map_active.svg"><metadata
   id="metadata41"><rdf:RDF><cc:Work
       rdf:about=""><dc:format>image/svg+xml</dc:format><dc:type
         rdf:resource="http://purl.org/dc/dcmitype/StillImage" /><dc:title></dc:title></cc:Work></rdf:RDF></metadata><defs
   id="defs39" /><sodipodi:namedview
   pagecolor="#ffffff"
   bordercolor="#666666"
   borderopacity="1"
   objecttolerance="10"
   gridtolerance="10"
   guidetolerance="10"
   inkscape:pageopacity="0"
   inkscape:pageshadow="2"
   inkscape:window-width="734"
   inkscape:window-height="480"
   id="namedview37"
   showgrid="false"
   inkscape:zoom="1.266835"
   inkscape:cx="63.668002"
   inkscape:cy="29.714998"
   inkscape:window-x="0"
   inkscape:window-y="24"
   inkscape:window-maximized="0"
   inkscape:current-layer="Layer_1"
   fit-margin-top="0"
   fit-margin-left="0"
   fit-margin-right="0"
   fit-margin-bottom="0" />
<polygon
   stroke-miterlimit="10"
   points="147.187,107.835 118.466,100.534 90.232,107.835 55.132,92.334 68.282,46.45 98.652,56.665 118.466,49.64 138.424,57.681 169.343,46.157 182.007,91.988 "
   id="polygon3"
   style="fill:#a4c196;fill-opacity:1;stroke:none"
   transform="translate(-55.132,-46.157001)" />
<g
   id="g5"
   style="fill:#009246;fill-opacity:1"
   transform="translate(-55.132,-46.157001)">
	<polygon
   points="63.795,85.206 72.286,53.357 93.304,62.164 86.784,96.133 "
   id="polygon7"
   style="fill:#009246;fill-opacity:1" />
	<g
   id="g9"
   style="fill:#009246;fill-opacity:1">
		<path
   d="m 92.667,61.99 c -2,10.423 -4,20.845 -6.001,31.268 -0.136,0.71 -0.272,1.419 -0.409,2.129 -0.204,1.062 0.537,0.022 0.682,0.092 -1.928,-0.917 -3.857,-1.833 -5.785,-2.75 -5.451,-2.591 -10.902,-5.182 -16.353,-7.772 -1.011,-0.48 -0.247,-0.037 -0.33,0.275 0.138,-0.517 0.275,-1.032 0.413,-1.549 0.685,-2.571 1.371,-5.142 2.056,-7.713 1.7,-6.375 3.399,-12.75 5.099,-19.125 0.215,-0.807 0.43,-1.613 0.646,-2.42 0.376,-1.413 -0.095,-0.229 -0.531,-0.412 2.116,0.887 4.231,1.773 6.347,2.66 4.824,2.021 9.648,4.042 14.473,6.064 0.774,0.325 1.444,-0.814 0.66,-1.143 -7.006,-2.936 -14.012,-5.871 -21.018,-8.807 -0.383,-0.161 -0.847,-0.053 -0.967,0.397 -2.83,10.616 -5.661,21.232 -8.491,31.849 -0.072,0.27 0.041,0.619 0.307,0.745 7.663,3.643 15.326,7.284 22.989,10.927 0.356,0.169 0.881,0.05 0.967,-0.397 2.173,-11.322 4.346,-22.646 6.52,-33.968 0.159,-0.834 -1.113,-1.186 -1.274,-0.35 z"
   id="path11"
   style="fill:#009246;fill-opacity:1"
   inkscape:connector-curvature="0" />
	</g>
</g>
<g
   id="g13"
   style="fill:#009246;fill-opacity:1"
   transform="translate(-55.132,-46.157001)">
	<polygon
   points="173.541,85.261 165.26,52.885 144.197,61.817 150.485,96.499 "
   id="polygon15"
   style="fill:#009246;fill-opacity:1" />
	<g
   id="g17"
   style="fill:#009246;fill-opacity:1">
		<path
   d="m 143.541,61.993 c 2.097,11.561 4.192,23.121 6.288,34.682 0.085,0.464 0.635,0.588 1,0.41 7.686,-3.746 15.37,-7.492 23.056,-11.238 0.271,-0.132 0.383,-0.486 0.312,-0.762 -2.761,-10.792 -5.521,-21.584 -8.281,-32.376 -0.12,-0.47 -0.605,-0.577 -1,-0.41 -7.021,2.978 -14.042,5.955 -21.062,8.933 -0.804,0.341 -0.108,1.509 0.688,1.172 4.55,-1.93 9.099,-3.859 13.648,-5.789 2.325,-0.986 4.651,-1.972 6.977,-2.958 0.894,-0.379 -0.657,-0.967 -0.479,-0.273 0.2,0.782 0.4,1.564 0.6,2.346 1.593,6.225 3.185,12.45 4.777,18.675 0.713,2.788 1.426,5.575 2.139,8.363 0.18,0.701 0.358,1.401 0.538,2.103 0.263,1.026 0.718,-0.322 0.068,-0.006 -5.296,2.581 -10.591,5.163 -15.887,7.744 -2.131,1.038 -4.262,2.077 -6.393,3.115 -0.811,0.396 0.681,0.979 0.554,0.279 -0.142,-0.78 -0.282,-1.561 -0.424,-2.34 -1.936,-10.674 -3.871,-21.348 -5.806,-32.021 -0.157,-0.863 -1.467,-0.504 -1.313,0.351 z"
   id="path19"
   style="fill:#009246;fill-opacity:1"
   inkscape:connector-curvature="0" />
	</g>
</g>
<g
   id="g21"
   style="fill:#009246;fill-opacity:1"
   transform="translate(-55.132,-46.157001)">
	<polygon
   points="122.972,91.831 122.972,56.904 136.667,62.424 142.681,96.841 "
   id="polygon23"
   style="fill:#009246;fill-opacity:1" />
	<g
   id="g25"
   style="fill:#009246;fill-opacity:1">
		<path
   d="m 136.035,62.593 c 1.659,9.494 3.318,18.987 4.977,28.481 0.296,1.691 0.592,3.383 0.887,5.074 0.276,1.58 -0.104,-0.208 0.895,0.047 -0.623,-0.159 -1.246,-0.317 -1.869,-0.476 -5.469,-1.39 -10.938,-2.78 -16.407,-4.171 -1.755,-0.445 -0.891,0.653 -0.891,-0.587 0,-1.979 0,-3.957 0,-5.936 0,-6.256 0,-12.512 0,-18.768 0,-2.401 0,-4.801 0,-7.202 0,-0.608 0,-1.216 0,-1.824 0,-0.516 -1.213,0.147 -0.188,0.56 4.353,1.754 8.704,3.508 13.057,5.263 0.783,0.315 1.117,-0.951 0.346,-1.262 -4.565,-1.84 -9.131,-3.68 -13.695,-5.52 -0.397,-0.16 -0.827,0.24 -0.827,0.626 0,11.643 0,23.285 0,34.927 0,0.289 0.197,0.563 0.481,0.636 6.57,1.67 13.14,3.34 19.709,5.01 0.512,0.13 0.889,-0.318 0.805,-0.8 -2.005,-11.473 -4.01,-22.945 -6.014,-34.417 -0.148,-0.83 -1.409,-0.485 -1.266,0.339 z"
   id="path27"
   style="fill:#009246;fill-opacity:1"
   inkscape:connector-curvature="0" />
	</g>
</g>
<g
   id="g29"
   style="fill:#009246;fill-opacity:1"
   transform="translate(-55.132,-46.157001)">
	<polygon
   points="114.203,91.831 114.203,56.904 100.508,62.424 94.494,96.841 "
   id="polygon31"
   style="fill:#009246;fill-opacity:1" />
	<g
   id="g33"
   style="fill:#009246;fill-opacity:1">
		<path
   d="m 99.877,62.251 c -2.004,11.473 -4.009,22.945 -6.014,34.417 -0.083,0.48 0.287,0.935 0.8,0.805 6.569,-1.67 13.139,-3.34 19.709,-5.01 0.28,-0.071 0.484,-0.34 0.484,-0.627 0,-11.643 0,-23.285 0,-34.927 0,-0.385 -0.419,-0.799 -0.823,-0.636 -4.565,1.84 -9.13,3.68 -13.695,5.52 -0.771,0.311 -0.442,1.578 0.339,1.263 4.199,-1.692 8.397,-3.384 12.597,-5.077 1.296,-0.522 0.275,-1.648 0.275,0.588 0,2.27 0,4.539 0,6.808 0,5.992 0,11.984 0,17.977 0,2.27 0,4.538 0,6.808 0,0.508 0,1.015 0,1.521 0,-0.39 0.789,-0.559 -0.415,-0.252 -5.183,1.317 -10.366,2.635 -15.549,3.952 -0.914,0.232 -1.828,0.465 -2.742,0.697 -0.951,0.241 0.223,1.276 0.338,0.617 0.284,-1.626 0.568,-3.252 0.852,-4.878 1.702,-9.74 3.404,-19.48 5.106,-29.221 0.144,-0.825 -1.117,-1.175 -1.262,-0.345 z"
   id="path35"
   style="fill:#009246;fill-opacity:1"
   inkscape:connector-curvature="0" />
	</g>
</g>
</svg>