<?xml version="1.0" encoding="utf-8"?>
<!-- Generator: Adobe Illustrator 15.1.0, SVG Export Plug-In . SVG Version: 6.00 Build 0)  -->
<!DOCTYPE svg PUBLIC "-//W3C//DTD SVG 1.1//EN" "http://www.w3.org/Graphics/SVG/1.1/DTD/svg11.dtd">
<svg version="1.1" id="Layer_1" xmlns="http://www.w3.org/2000/svg" xmlns:xlink="http://www.w3.org/1999/xlink" x="0px" y="0px"
	 width="237.6px" height="156.24px" viewBox="0 0 237.6 156.24" enable-background="new 0 0 237.6 156.24" xml:space="preserve">
<g>
	<rect x="66.521" y="45.981" fill="#9FC294" width="104.984" height="44.024"/>
	<g>
		<path fill="#9FC294" d="M171.525,87.254c-34.994,0-69.989,0-104.984,0c0.911,0.924,1.821,1.848,2.732,2.771
			c0-14.674,0-29.349,0-44.024c-0.924,0.911-1.848,1.821-2.772,2.732c34.995,0,69.99,0,104.985,0
			c-0.911-0.924-1.821-1.848-2.732-2.772c0,14.675,0,29.35,0,44.025c0,3.553,5.504,3.584,5.504,0.039c0-14.674,0-29.349,0-44.024
			c0-1.491-1.226-2.772-2.732-2.772c-34.994,0-69.989,0-104.984,0c-1.491,0-2.772,1.226-2.772,2.732c0,14.675,0,29.35,0,44.025
			c0,1.491,1.226,2.771,2.732,2.771c34.995,0,69.99,0,104.985,0C175.039,92.758,175.07,87.254,171.525,87.254z"/>
	</g>
</g>
<g>
	<polygon fill="#9FC294" points="72.054,109.617 76.802,87.003 107.653,87.003 	"/>
	<g>
		<path fill="#9FC294" d="M73.587,110.037c1.583-7.538,3.166-15.076,4.748-22.614c-0.515,0.39-1.03,0.779-1.544,1.17
			c10.284,0,20.567,0,30.852,0c-0.265-0.987-0.529-1.974-0.793-2.961c-11.867,7.538-23.733,15.076-35.6,22.614
			c-1.724,1.096-0.125,3.845,1.609,2.742c11.867-7.538,23.733-15.076,35.6-22.614c1.301-0.827,0.824-2.961-0.793-2.961
			c-10.284,0-20.567,0-30.852,0c-0.68,0-1.398,0.476-1.544,1.17c-1.583,7.538-3.166,15.076-4.748,22.614
			C70.101,111.198,73.166,112.043,73.587,110.037z"/>
	</g>
</g>
<g>
	<rect x="71.433" y="49.109" fill="#006838" width="92.424" height="34.087"/>
	<g>
		<path fill="#006838" d="M163.866,81.824c-30.808,0-61.616,0-92.424,0c0.454,0.461,0.908,0.921,1.362,1.382
			c0-11.362,0-22.725,0-34.087c-0.46,0.454-0.921,0.908-1.382,1.362c30.808,0,61.616,0,92.424,0
			c-0.454-0.46-0.908-0.921-1.362-1.382c0,11.362,0,22.725,0,34.087c0,1.771,2.744,1.787,2.744,0.02c0-11.362,0-22.725,0-34.087
			c0-0.744-0.611-1.382-1.362-1.382c-30.808,0-61.616,0-92.424,0c-0.744,0-1.382,0.611-1.382,1.362c0,11.362,0,22.725,0,34.087
			c0,0.743,0.611,1.382,1.362,1.382c30.808,0,61.616,0,92.424,0C165.618,84.568,165.634,81.824,163.866,81.824z"/>
	</g>
</g>
<g>
	<polygon fill="#006838" points="76.992,99.841 81.852,81.001 106.654,81.001 	"/>
	<g>
		<path fill="#006838" d="M77.854,100.077c0.891-3.454,1.782-6.907,2.672-10.361c0.561-2.173,1.121-4.347,1.682-6.52
			c0.148-0.573,0.296-1.146,0.443-1.72c-0.016,0.062-1.377,0.418-0.04,0.418c8.012,0,16.024,0,24.036,0
			c-0.149-0.555-0.297-1.109-0.446-1.664C96.314,86.51,86.427,92.79,76.54,99.07c-0.969,0.615-0.071,2.161,0.904,1.541
			c9.888-6.279,19.775-12.56,29.662-18.84c0.732-0.465,0.463-1.664-0.446-1.664c-8.268,0-16.535,0-24.803,0
			c-0.396,0-0.768,0.269-0.868,0.657c-1.62,6.28-3.24,12.561-4.859,18.84C75.842,100.722,77.566,101.192,77.854,100.077z"/>
	</g>
</g>
</svg>
